<?xml version="1.0" encoding="utf-8"?>
<!-- Generator: Adobe Illustrator 18.1.1, SVG Export Plug-In . SVG Version: 6.00 Build 0)  -->
<svg version="1.1" id="Layer_1" xmlns="http://www.w3.org/2000/svg" xmlns:xlink="http://www.w3.org/1999/xlink" x="0px" y="0px"
	 viewBox="0 0 216.3 100" enable-background="new 0 0 216.3 100" xml:space="preserve">
<path fill="#1B75BB" d="M26.6,45.5h19c2.8,0,5.3,0.3,7.6,1c2.3,0.7,4.2,1.7,5.8,3c1.6,1.3,2.8,3,3.7,4.9c0.9,1.9,1.3,4.1,1.3,6.6
	v0.1c0,2.6-0.5,4.9-1.4,6.9c-0.9,2-2.3,3.6-4,5c-1.7,1.3-3.7,2.4-6,3c-2.3,0.7-4.9,1-7.6,1h-6.1v12.6H26.6V45.5z M44.7,67.5
	c2.2,0,3.9-0.5,5.2-1.6c1.2-1,1.9-2.4,1.9-4.2v-0.1c0-1.9-0.6-3.4-1.9-4.4c-1.2-1-3-1.5-5.2-1.5h-5.8v11.8H44.7z"/>
<path fill="#1B75BB" d="M67.3,45.5h35.5v10.4H79.4v6.7h21.2v9.7H79.4v7h23.8v10.4H67.3V45.5z"/>
<path fill="#1B75BB" d="M118.4,56.2h-13.3V45.5h38.8v10.7h-13.3v33.5h-12.3V56.2z"/>
<path fill="#1B75BB" d="M164.8,90.5c-4,0-7.7-0.6-11.3-1.8c-3.6-1.2-6.7-3.1-9.5-5.5l6.8-8.2c4.4,3.5,9.2,5.3,14.4,5.3
	c1.6,0,2.9-0.3,3.8-0.8c0.9-0.5,1.3-1.3,1.3-2.2v-0.1c0-0.5-0.1-0.9-0.3-1.2c-0.2-0.4-0.6-0.7-1.2-1c-0.6-0.3-1.3-0.7-2.3-1
	c-0.9-0.3-2.2-0.6-3.7-1c-2.4-0.5-4.6-1.1-6.6-1.8c-2-0.7-3.8-1.5-5.3-2.5c-1.5-1-2.7-2.3-3.5-3.8c-0.9-1.5-1.3-3.4-1.3-5.7v-0.1
	c0-2.1,0.4-4,1.2-5.7c0.8-1.7,1.9-3.2,3.4-4.5c1.5-1.3,3.3-2.2,5.4-2.9c2.1-0.7,4.5-1,7.1-1c3.8,0,7.2,0.5,10.1,1.5
	c3,1,5.7,2.5,8.1,4.4l-6.1,8.7c-2-1.4-4.1-2.5-6.2-3.3c-2.1-0.7-4.2-1.1-6.2-1.1c-1.5,0-2.6,0.3-3.3,0.8c-0.7,0.5-1.1,1.2-1.1,2v0.1
	c0,0.5,0.1,0.9,0.3,1.3c0.2,0.4,0.6,0.7,1.2,1c0.6,0.3,1.3,0.6,2.3,0.9c1,0.3,2.2,0.6,3.8,1c2.5,0.5,4.8,1.2,6.9,1.9
	c2,0.7,3.8,1.6,5.2,2.7c1.4,1.1,2.5,2.3,3.3,3.8c0.8,1.5,1.1,3.3,1.1,5.3v0.1c0,2.3-0.4,4.3-1.3,6.1c-0.9,1.8-2.1,3.3-3.6,4.5
	c-1.6,1.2-3.4,2.2-5.6,2.8C169.9,90.1,167.5,90.5,164.8,90.5z"/>
<path fill="#DC3326" d="M25.3,23.9c-0.3,0.5-0.8,0.8-1.5,0.8c-0.7,0-1.3-0.1-1.8-0.5c-0.7-0.5-1.6-0.7-2.7-0.6
	c-1.5,0.1-2.4,0.1-2.7,0c-0.6,0.3-1.3,0.7-2,1.3c-0.7,0.6-1.3,1.2-1.9,1.8c-0.6,0.2-1.3,0.6-2.2,1.4c-0.2,0.4-0.7,1.1-1.4,2.4
	c-0.1,0.2-0.7,0.9-1.7,2.2c-0.7,0.9-1.1,1.7-1.1,2.3c0,0.3-0.2,1.1-0.4,2.2c-0.2,0.8-0.3,1.5-0.3,2.1c0,0.5,0.2,1,0.4,1.5
	c1.1,2.4,2.9,4.1,5.6,5.2c2.4,1.1,5.1,1.5,8,1.3c1.3-0.1,2.6-0.3,3.8-0.6c1.4,0,3-0.4,4.9-1c2-0.7,3.3-1.5,4-2.4
	c0.5-0.2,1.2-0.5,2.1-1.1c0.1-0.1,0.6-0.7,1.3-1.6c0.7-0.9,1.4-1.4,2-1.5c0.6,0,0.9,0.4,1.1,1.3c0.2,0.8,0.1,1.6-0.2,2.6
	c-0.3,1-0.7,1.6-1.3,1.8c-0.6,0.2-1.3,0.6-2.2,1.1L34.7,47c-0.1,0.2-0.4,0.4-0.8,0.6c-0.4,0.2-1,0.6-1.9,1.4c-0.7,0.6-1.3,0.9-1.9,1
	c-1,0.1-2.6,0.6-4.8,1.3c-2,0.6-3.7,1-4.9,1.1c-2.4,0.2-5.1-0.3-8.1-1.2c-2.2-0.7-3.9-1.3-5.1-1.9c-2.1-0.9-3.5-1.9-4.1-3
	c-0.2-0.3-0.7-0.9-1.5-1.8c-0.6-0.7-0.9-1.4-1.1-2.2C0.1,40.7-0.1,38.9,0,37c0.1-1.9,1.5-4.6,4-8c4.9-6.8,10.1-10.4,15.6-10.7
	c0.7,0,1.4,0,2.1,0.1c0-0.1,0.1-0.3,0.2-0.5c1.1,0,2,0.3,2.8,1c0.7,0.7,1.1,1.6,1.2,2.6C25.9,22.4,25.7,23.1,25.3,23.9z"/>
<path fill="#DC3326" d="M51.5,15.8c0.5,0,1.2,0.1,2.1,0.3c0.8,0.2,1.4,0.2,1.9,0.2c0.4,0,0.8-0.1,1.2-0.3c0.5-0.1,1.2,0,2.1,0.4
	c0.3,0.1,0.6,0.2,1,0.1c0.3-0.1,0.7-0.2,1-0.3C61.2,16,62,16,63,16c1,0.1,1.7,0.1,2.2,0c2-0.3,3.5-0.5,4.5-0.5
	c4.9-0.3,7.3,0.8,7.2,3.4c-0.1,3-1.3,6-3.8,9c-0.6,0.7-1.1,1.3-1.6,2c-0.8,0.9-1.4,1.4-2,1.5c-0.6,0.1-1.3,0.6-2.3,1.2
	c-0.9,0.7-1.7,1-2.5,1.1c-0.4,0.1-0.8,0.4-1.4,1c-0.5,0.6-0.8,1-0.8,1.3c0.4,0.4,1.3,0.7,2.7,0.8c1,0.1,2.1,0.2,3.1,0.3
	c0.5,0.1,0.9,0.3,1.2,0.6c0.3,0.3,0.6,0.5,1,0.5c0.1-0.5,0.7-0.9,1.7-1.3c0.5,0.3,1.4,0.7,2.5,1.1l1.3-0.2c0,0.4,0.2,0.7,0.6,0.7
	c0.4,0,0.9,0.2,1.6,0.4c0.4-0.6,1-0.8,1.9-0.4c1.7,0.6,2.7,1.7,2.9,3.2c0.1,1.7-0.5,2.6-2,2.7c-0.9,0.1-2.2-0.2-3.9-0.8
	c-1.9-0.6-3-0.9-3.2-0.9c-0.6,0-2.2-0.2-4.8-0.6c-1.9-0.3-3.5-0.3-4.8-0.2c-0.4,0-1-0.1-1.8-0.4c-0.8-0.3-1.3-0.5-1.7-0.5
	c-0.4,0-1.1-0.2-2.2-0.4c-0.7-0.2-1.4-0.2-2.1-0.1c-0.6,0.1-1.3-0.1-2.1-0.4c-1-0.5-1.7-0.8-1.9-0.9c-0.4-0.1-0.7-0.1-1-0.1
	c-0.8,0.1-1.1,1-0.8,3c0.1,0.3,0,0.6-0.2,0.8c-0.2,0.2-0.3,0.4-0.2,0.6c0.2,0.4,0.4,0.9,0.6,1.6c0.7,2,1,3.4,0.9,4.2
	c-0.1,0.4-0.4,1-0.9,1.7c-0.5,0.7-0.8,1.3-0.9,1.7c0,0.1-0.1,0.2-0.4,0.2c-1.1,0.1-2-0.1-2.6-0.6c-1-0.8-1.6-1.7-1.7-2.9
	c0-0.3,0.2-1.6,0.6-4c-0.1-0.9-0.2-2.1-0.3-3.8l-0.1-1.9c-1.1-0.7-1.7-1.6-1.7-2.7c0-0.3,0.1-0.8,0.5-1.3c0.3-0.5,0.5-1,0.6-1.5
	c0.3-2,0.4-3.5,0.5-4.6c0-0.6,0.2-1,0.4-1.4c0-0.1-0.1-0.4-0.4-1c-0.2-0.6-0.4-1.1-0.6-1.7c-0.2-0.5-0.5-0.9-1-1.2
	c-1.5-0.7-2.2-1.6-2.3-2.5c0-0.3,0-0.5,0.1-0.8c0.9-2.4,2.4-4.1,4.6-5.1C46.4,15.7,48.2,15.7,51.5,15.8z M51.1,22
	c-1.3,0.3-1.8,1.8-1.4,4.5c0,0.3,0,1-0.1,2.3c-0.1,1.2-0.1,2.2-0.1,2.9c0.1,1.9,0.7,2.8,1.7,2.7c0.4,0,0.9-0.2,1.5-0.5
	c0.2-0.1,1-0.4,2.4-0.8c0.5,0,1.1-0.2,1.8-0.5c0.7-0.4,1.2-0.6,1.5-0.7c1.1-0.2,2.1-0.4,3.2-0.7c1.1-0.2,1.9-0.8,2.5-1.7
	c0.2-0.3,0.8-0.7,1.9-1.2c0.2-0.4,0.6-1.1,1.4-2c2.3-1.6,3.2-3.3,2.8-4.9c-0.5-0.5-1.6-0.6-3.3-0.3c-0.4,0.1-1.8,0-4.1-0.3
	c-1.9-0.2-3.1-0.2-3.6,0c-0.1,0-0.3,0.1-0.7,0.4c-0.3,0.2-0.6,0.3-0.9,0.3c-0.4-0.2-1-0.4-1.9-0.6c-0.5,0.4-1.3,0.7-2.3,0.9
	C52,21.8,51.1,22,51.1,22z"/>
<path fill="#DC3326" d="M104.4,46.2c-0.2,0.5-0.6,0.8-1.3,1c-0.6,0.2-1.4,0.3-2.3,0.4c-3.1,0.2-6-0.3-8.8-1.6
	c-3.2-1.4-4.9-3.4-5.1-5.9c-0.1-0.8,0.1-1.7,0.4-2.6c0.2-0.5,0.6-1.1,1.4-2c0.7-0.8,1.1-1.5,1.2-2c0.1-0.5,0.3-0.8,0.7-0.9
	c0.3-0.2,0.7-0.3,1-0.5c0.2-0.4,0.4-0.8,0.6-1.2c0.2-0.3,0.6-0.5,1.2-0.5c0.2-0.4,0.7-0.8,1.5-1.2c0.8-0.4,1.5-0.6,2-0.5
	c0.5,0.1,1-0.1,1.3-0.4c0.3-0.4,0.6-0.8,1-1.2c0.9,0.1,2-0.1,3.2-0.5c0.6-0.1,1.2-0.2,1.8-0.3c0.6-0.1,0.8-0.4,0.8-0.9
	c0-0.7-0.3-1.5-0.9-2.4c-0.5-0.9-1.1-1.5-1.7-1.9c-0.4-0.4-0.8-0.7-1.2-1c-0.7-0.5-1.4-0.8-2.1-0.7c-0.3,0-0.6,0-1,0.1
	c-0.2,0-0.4,0-0.6,0c-0.7,0-1.5,0.4-2.4,1.1c-0.4,0.4-0.9,0.8-1.4,1.2c-0.5,0.4-1.1,0.7-2.1,1c-0.4,0.1-0.8-0.1-1.2-0.5
	c-0.4-0.4-0.6-0.6-0.8-0.7c-0.9-0.4-1.3-0.7-1.4-0.9c0-0.1,0-0.6,0.2-1.4c0.3-0.1,0.6-0.3,0.7-0.6c0.2-0.5,0.4-0.8,0.4-0.9
	c0.2-0.3,0.9-0.8,2.1-1.4c0.4-0.3,0.8-0.6,1.3-0.9c0.4-0.2,0.9-0.3,1.5-0.4c0,0,0.4-0.2,1.1-0.5c0.7-0.3,1.3-0.5,1.9-0.5
	c0.3,0,0.7,0,1,0.1c2.6,0.3,4.1,0.2,4.5-0.2c1.6-0.1,3.3,1.4,4.9,4.4c1.6,2.8,2.9,6.3,3.9,10.4c0.1,0.5,0.2,1.4,0.2,2.8
	c0,1.1,0.2,2,0.6,2.8c0.1,0.6,0.2,1.3,0.1,2.3c-0.1,1.1-0.1,1.9,0,2.4c0.2,0.9,0.3,1.9,0.4,2.8c0.2,3.4-0.5,5.1-2.3,5.1
	c-1.8,0-2.9-0.2-3.3-0.6c-0.2-0.2-0.5-0.8-0.7-2c-0.4,0.2-0.8,0.3-1.1,0.5C105.1,45.3,104.6,45.7,104.4,46.2z M107.2,35.2
	c-0.1-1.8-0.7-2.8-1.8-3.1c-0.9-0.1-2.4,0-4.5,0.2c-0.1,0.1-0.8,0.2-2,0.3c-0.7,0.1-1.3,0.4-1.7,0.8c-0.2,0.2-0.8,0.4-1.9,0.6
	c-0.2,0.4-0.7,1-1.3,1.7c-1.1,0.9-1.7,1.8-1.6,2.6c0,0.7,0.5,1.2,1.4,1.7c0.8,0.4,1.5,0.8,2.3,1.3c0.8,0.4,1.5,0.7,2.2,0.7
	c1.1,0.2,1.9,0.3,2.3,0.2c0.9-0.1,1.6-0.4,2.1-1.1c0.9-0.1,1.7-0.2,2.2-0.3c1-0.3,1.6-0.7,1.9-1.3c-0.1-0.3-0.1-1,0-2
	C107.1,36.5,107.2,35.7,107.2,35.2z"/>
<path fill="#DC3326" d="M140.8,17.4c0.1,0,0.4-0.1,0.7-0.2c0.4-0.2,0.6-0.2,0.9-0.2c1,0.4,1.6,1.2,1.6,2.4c0.1,1.4-0.4,2.9-1.5,4.4
	c-0.5,0.3-1,1-1.6,1.9c-0.1,0.4-0.5,0.8-1,1.2c-0.5,0.4-0.7,0.8-0.7,1.4c-0.4,1.3-1.9,3.2-4.4,5.7c-2.4,2.3-3.6,4.2-3.8,5.7
	c-0.1,0.6,0.1,0.8,0.5,0.8c0.2,0,0.5-0.1,1-0.3c0.5-0.2,0.9-0.3,1.1-0.3c1.5,0,3.4-0.1,5.5-0.5c-0.3,0.1,1.3,0,4.5-0.2
	c0.2,0,0.4-0.1,0.6-0.3c0.2-0.2,0.3-0.3,0.5-0.3c0.5-0.1,1.3-0.2,2.4-0.3c1.5-0.1,2.6,0.1,3.1,0.6c0.3,0.2,0.6,0.5,0.9,0.7
	c0.1,0.2,0.2,0.5,0.3,1c0.2,1.5,0.3,2.4,0.2,2.8c0,1.4-1.1,2.1-3.4,2.3c-1,0.1-2.4,0-4.3-0.2c-1.8-0.2-2.9-0.3-3.3-0.3
	c-0.3,0-1,0-2-0.2c-1-0.1-1.7-0.2-2.1-0.2c-0.2,0-0.4,0-0.6,0.1c-0.5,0.2-1.1,0.3-1.9,0.3c-0.9,0.1-1.6,0.1-1.9,0.1
	c-1,0-2.4,0.1-4.3,0.3c-0.5,0.1-1.1,0.3-1.6,0.8c-0.6,0.4-1,0.7-1.2,0.7c-0.1,0-0.3,0-0.7-0.1c-0.4-0.1-0.7-0.1-1,0
	c-0.3,0-0.7,0-0.9-0.2c-0.3-0.2-0.6-0.2-1-0.1c-0.6,0-0.9,0.1-1,0.1c0,0-0.2-0.4-0.5-1c-0.5-0.3-0.8-0.6-0.8-0.9
	c0,0,0.1-0.4,0.3-1.2c-0.2-1-0.1-1.7,0.1-2c0.5-0.7,1.7-1.6,3.6-2.8c1.7-1.1,2.7-2.1,3.1-3c0.4-0.9,1.3-2.1,2.7-3.6
	c1.3-1.4,2.2-2.6,2.6-3.6c0.4-0.7,0.8-1.3,1.2-2c0.5-0.9,0.7-1.6,0.6-2c-0.1-0.6-0.7-0.9-1.8-0.8c-0.7,0-1.7,0.3-3,0.6
	c-1.1,0.4-2.1,0.7-3.1,1.1c-1.3,0.4-2.3,0.7-3.2,0.7c-0.7,0-1.4,0-2-0.2c-1.6-0.5-2.4-1.4-2.5-2.7c-0.1-1.9,1.1-2.9,3.6-2.9
	c0.5-0.2,1.4-0.3,2.7-0.3c0.6,0,1.5-0.2,2.4-0.5c0.8-0.3,1.7-0.5,2.5-0.8c1.7-0.6,4.2-1.4,7.6-2.4c0.4,0,1.1-0.1,1.9-0.3
	c0.2,0.1,0.5,0.3,0.9,0.6C140.1,17.4,140.4,17.5,140.8,17.4z"/>
<path fill="#DC3326" d="M160.2,11.4c0.4,1,1,1.6,1.7,2c0.2,0.8,0.7,1.5,1.6,2.2c0.8,0.7,1.4,1.4,1.6,2c0.2,0.4,0.4,0.8,0.9,1.2
	c0.4,0.4,0.7,0.9,0.9,1.2c0.3,0.1,0.8,0.3,1.3,0.6c0.3,0.3,0.6,0.6,0.8,0.9c0.4,0.5,0.7,0.7,0.9,0.7c0.3,0,0.7-0.4,1.1-1
	c0.4-0.7,0.7-1.2,0.8-1.7c0.4-1.3,1.3-3,2.9-4.9c0.3-0.4,0.7-1.2,1.1-2.3c0.3-0.8,0.8-1.8,1.6-2.9c0.9-1.4,1.4-2.3,1.6-2.8
	c0.1-1.3,1.1-2.3,2.8-3c0.3-0.1,0.7-0.2,1-0.2c1.8-0.1,2.8,0.9,3,3c0.1,1.1-0.2,2-0.8,2.9c-0.8,0.8-2,2.1-3.5,3.9
	c-0.6,0.7-1,1.6-1.1,2.5c-0.7,0.5-1.2,1.2-1.6,2.2c-0.2,0.5-0.8,1.2-1.6,2.1c-0.8,0.9-1.3,1.6-1.5,2.2c-0.4,1.4-1.3,2.9-2.5,4.7
	c-1,1.4-2.1,2.8-3.2,4.2l-0.8,2.4c-0.4,0.5-0.9,1.2-1.6,2.3c-0.3,0.7-0.5,1.4-0.8,2.1c-0.3,0.8-0.7,1.5-1.2,1.9
	c-0.4,0.1-0.9,0.5-1.4,1.2c-0.1,0.5-0.3,1.2-0.6,2.2c-0.7,1.8-1.2,2.9-1.5,3.4c-0.8,1.6-1.6,2.4-2.4,2.5c-0.3,0-0.6,0.2-0.8,0.6
	c-0.2,0.4-0.4,0.6-0.5,0.6c-0.1,0-0.3-0.1-0.5-0.2c-0.7-0.6-0.9-1.9-0.6-4c0.1-0.3,0.3-1.4,0.8-3.4c0.5-0.3,1-0.8,1.4-1.7
	c0.4-0.9,0.9-1.5,1.4-1.8c0.3-0.2,0.6-0.8,0.8-1.5c0.3-1,0.6-1.6,1-2c0.4-0.4,0.6-1,0.8-1.8c0.2-0.8,0.4-1.4,0.6-1.8
	c0.5-0.9,1.1-1.7,1.7-2.5c0.8-1.3,1.2-2.2,1.1-2.9c-0.1-0.8-0.7-1.3-2-1.4c-0.3-0.5-0.8-0.9-1.4-1.5c-1-0.8-1.5-1.3-1.6-1.4
	c-0.1-0.1-0.4-0.5-0.8-1.3c-0.3-0.6-0.6-0.9-0.7-0.9c-0.2,0-0.3,0.2-0.3,0.7c-0.6-0.1-1.2-0.7-2-1.6c-0.8-0.9-1.1-1.7-1.2-2.3
	c-0.3-0.3-0.7-0.9-1.2-1.8c-0.1-0.6-0.3-0.9-0.5-1.1c-0.4-0.1-0.7-0.3-1.1-0.4c-0.1-0.8-0.5-1.6-1.1-2.5c-0.9-1.3-1.4-2.1-1.6-2.4
	c-0.2-0.5-0.3-0.9-0.3-1.2c0-0.5,0.3-1,0.9-1.5c1-0.7,1.6-1.1,1.8-1.3C156.3,4.9,158.5,7,160.2,11.4z"/>
<path fill="#DC3326" d="M112.9,8.1c0.3,0.6,0.3,1.1,0.2,1.5c-0.2,0.5-0.4,1.1-0.6,1.6c-0.2,0.7-1.1,1.4-2.6,2.2
	c-0.4,0.2-1.8-0.3-4.2-1.4c-0.4-0.2-0.7-0.5-0.8-0.9c-0.1-0.4,0-0.8,0.3-1.2c0.3-0.4,0.9-1.6,1.6-3.7c0.3-0.9,1.2-1.2,2.5-1.1
	c1,0.2,1.9,0.3,2.9,0.5c0.3,0.3,0.5,0.8,0.5,1.4C112.7,7.3,112.8,7.8,112.9,8.1z"/>
<path fill="#DC3326" d="M104.6,2.4c0.4,0.5,0.6,1,0.6,1.4c0,0.6-0.1,1.1-0.1,1.7c0,0.7-0.7,1.7-1.9,2.8c-0.3,0.3-1.8,0.3-4.4-0.2
	c-0.5-0.1-0.8-0.3-1.1-0.7c-0.2-0.4-0.3-0.8-0.1-1.3c0.2-0.5,0.3-1.8,0.5-4c0.1-0.9,0.8-1.5,2.1-1.8c1-0.1,1.9-0.2,2.9-0.3
	c0.4,0.2,0.7,0.6,0.8,1.2C104.2,1.7,104.4,2.1,104.6,2.4z"/>
<path fill="#DC3326" d="M90.6,10.9c-0.6,0.1-1.2,0.1-1.5-0.2c-0.5-0.3-1-0.6-1.4-0.9c-0.6-0.4-1.1-1.4-1.5-3
	c-0.1-0.4,0.7-1.7,2.3-3.8c0.3-0.4,0.7-0.6,1.1-0.6c0.4,0,0.8,0.2,1.1,0.6c0.3,0.4,1.4,1.2,3.3,2.4c0.8,0.5,1,1.4,0.6,2.7
	c-0.4,0.9-0.8,1.8-1.1,2.7c-0.4,0.2-0.9,0.3-1.4,0.2C91.4,10.9,90.9,10.8,90.6,10.9z"/>
<path fill="#DC3326" d="M86.9,16.8c0.2,0.5,0.2,1,0,1.4c-0.8,0.5-1.7,1-2.5,1.5c-1.2,0.6-2.1,0.5-2.7-0.2c-1.4-1.7-2.4-2.7-2.8-2.9
	c-0.4-0.3-0.7-0.6-0.7-1.1c0-0.4,0.1-0.8,0.5-1.2c1.9-1.9,3-2.8,3.5-2.8c1.7,0.2,2.7,0.6,3.2,1.2c0.3,0.4,0.7,0.8,1.1,1.3
	c0.3,0.4,0.4,0.9,0.3,1.5C86.6,15.8,86.7,16.2,86.9,16.8z"/>
<path d="M207.9,96.2c0.7,0.3,1.1,0.8,1.4,1.3c0.2,0.6,0.2,1.1,0,1.5c-0.3,0.7-1,1-2,0.9c-0.4,0-0.8-0.2-1.1-0.3
	c-0.4-0.2-1-0.6-1.6-1.1c-0.9-0.7-1.4-1.1-1.5-1.2c-0.2-0.1-0.7-0.3-1.3-0.5c-0.6-0.2-1-0.4-1.2-0.6l-0.8-0.7
	c-0.2-0.1-0.4,0-0.7,0.2c-0.4-0.4-1-0.7-1.7-1c-0.2-0.1-0.8-0.3-1.7-0.6c-0.7-0.3-1.2-0.5-1.6-0.7c-0.8-0.5-1.7-0.7-2.7-0.8
	c-0.4-0.1-0.8-0.3-1.1-0.6c-0.2-0.2-0.4-0.3-0.8-0.4c-0.4-0.1-0.7-0.3-0.9-0.4c-0.2-0.1-1-0.5-2.3-1c-0.6-0.4-1.3-0.7-2.2-1.1
	c-0.2,0-0.4-0.1-0.6-0.1c-0.5-0.2-0.7-0.6-0.6-1.2c0.1-0.3,0.3-0.4,0.6-0.4c0.3,0,0.7,0.1,1,0.1c1.4,0.2,2.1,0.3,2.2,0.3
	c0.7,0.1,1.4,0.4,2.3,0.8c0.4,0.2,1.1,0.5,1.9,0.7c0.8,0.2,1.4,0.4,1.8,0.6c0.2,0.1,0.5,0.3,0.9,0.5c0.3,0.2,0.6,0.4,0.7,0.5
	c0.1,0.1,0.4,0.1,0.6,0.1c0.3,0,0.5,0,0.8,0.1c0.4,0.1,0.7,0.3,0.9,0.5c0.1,0.1,0.3,0.2,0.4,0.3c0.1,0.1,0.3,0.1,0.6,0.1
	c0.3,0,0.5,0.1,0.8,0.2c0.3,0.1,0.6,0.3,0.9,0.5c0.4,0.2,0.6,0.3,0.7,0.4c0.4,0.2,0.9,0.3,1.4,0.3c0.1,0,0.3,0.1,0.4,0.1
	c0.1,0.1,0.3,0.2,0.5,0.3c0.2,0.1,0.4,0.2,0.5,0.3c0.3,0.1,0.6,0.2,0.9,0c0.3,0.1,0.8,0.4,1.4,0.9c0.6,0.5,1.1,0.8,1.4,0.9
	C207.1,96.2,207.5,96.3,207.9,96.2z"/>
<path d="M211.7,85.6c0.7,0.2,1.2,0.6,1.5,1.1c0.3,0.5,0.4,1,0.3,1.5c-0.2,0.8-0.8,1.2-1.8,1.2c-0.4,0-0.8-0.1-1.2-0.2
	c-0.5-0.1-1.1-0.4-1.8-0.8c-1-0.6-1.6-0.9-1.7-0.9c-0.2-0.1-0.7-0.2-1.4-0.3c-0.6-0.1-1-0.3-1.3-0.5l-0.9-0.5
	c-0.2-0.1-0.4,0-0.6,0.3c-0.5-0.3-1.1-0.5-1.8-0.8c-0.3-0.1-0.8-0.2-1.7-0.4c-0.7-0.2-1.3-0.4-1.7-0.5c-0.9-0.3-1.8-0.5-2.7-0.4
	c-0.4-0.1-0.8-0.2-1.1-0.5c-0.2-0.1-0.5-0.2-0.8-0.3c-0.5-0.1-0.8-0.2-0.9-0.2c-0.2-0.1-1.1-0.3-2.5-0.7c-0.6-0.3-1.4-0.6-2.4-0.8
	c-0.2,0-0.4,0-0.6,0c-0.6-0.2-0.8-0.5-0.8-1.1c0.1-0.3,0.3-0.5,0.6-0.5c0.3,0,0.7,0,1,0c1.4,0,2.1,0,2.3,0c0.7,0,1.5,0.2,2.4,0.5
	c0.5,0.2,1.1,0.3,1.9,0.5c0.8,0.1,1.4,0.2,1.8,0.3c0.3,0.1,0.6,0.2,0.9,0.4c0.4,0.2,0.6,0.3,0.8,0.4c0.2,0,0.4,0.1,0.6,0
	s0.5,0,0.8,0c0.4,0,0.7,0.2,1,0.4c0.1,0.1,0.3,0.2,0.4,0.2c0.1,0,0.3,0.1,0.6,0c0.3,0,0.6,0,0.8,0.1c0.3,0.1,0.6,0.2,1,0.3
	c0.4,0.1,0.6,0.2,0.8,0.3c0.5,0.1,0.9,0.2,1.4,0.1c0.1,0,0.3,0,0.4,0.1c0.2,0,0.3,0.1,0.6,0.2c0.2,0.1,0.4,0.2,0.5,0.2
	c0.3,0.1,0.6,0.1,0.9-0.1c0.3,0.1,0.8,0.3,1.5,0.7c0.7,0.4,1.2,0.6,1.6,0.7C210.9,85.7,211.4,85.7,211.7,85.6z"/>
<path d="M213.9,73.3c0.8,0.1,1.4,0.3,1.8,0.7c0.4,0.4,0.6,0.9,0.6,1.4c0,0.8-0.5,1.3-1.5,1.6c-0.4,0.1-0.8,0.1-1.2,0.1
	c-0.5,0-1.1-0.1-1.9-0.4c-1.1-0.3-1.7-0.5-1.9-0.5c-0.3-0.1-0.7,0-1.4,0c-0.6,0-1.1,0-1.4-0.1l-1-0.3c-0.2,0-0.4,0.1-0.6,0.4
	c-0.5-0.2-1.2-0.3-1.9-0.3c-0.3,0-0.9,0-1.8,0c-0.8,0-1.4,0-1.8-0.1c-1-0.1-1.9,0-2.8,0.3c-0.4,0-0.8,0-1.2-0.2
	c-0.2-0.1-0.5-0.1-0.9-0.1c-0.5,0-0.8,0-0.9,0c-0.3,0-1.1-0.1-2.6-0.1c-0.7-0.1-1.5-0.2-2.5-0.2c-0.2,0.1-0.4,0.1-0.6,0.1
	c-0.6,0-0.9-0.3-1-0.9c0-0.3,0.1-0.5,0.4-0.6c0.3-0.1,0.6-0.2,1-0.2c1.3-0.4,2.1-0.6,2.2-0.6c0.7-0.1,1.5-0.2,2.4-0.1
	c0.5,0.1,1.2,0,2,0c0.8-0.1,1.5-0.1,1.9-0.1c0.3,0,0.6,0.1,1,0.2c0.4,0.1,0.7,0.1,0.9,0.1c0.2,0,0.4,0,0.6-0.1
	c0.3-0.1,0.5-0.2,0.8-0.2c0.4-0.1,0.8,0,1.1,0.2c0.2,0.1,0.3,0.1,0.5,0.1c0.1,0,0.3,0,0.6-0.1c0.3-0.1,0.5-0.1,0.8-0.1
	c0.3,0,0.7,0,1.1,0.1c0.4,0,0.7,0.1,0.8,0.1c0.5,0,1-0.1,1.4-0.3c0.1,0,0.3,0,0.4,0c0.2,0,0.4,0,0.6,0.1c0.2,0,0.4,0.1,0.5,0.1
	c0.3,0,0.6-0.1,0.9-0.3c0.3,0,0.9,0.1,1.7,0.3c0.8,0.2,1.3,0.3,1.7,0.3C213.2,73.7,213.6,73.6,213.9,73.3z"/>
</svg>
