<?xml version="1.0" encoding="iso-8859-1"?>
<!-- Generator: Adobe Illustrator 18.1.1, SVG Export Plug-In . SVG Version: 6.00 Build 0)  -->
<!DOCTYPE svg PUBLIC "-//W3C//DTD SVG 1.1//EN" "http://www.w3.org/Graphics/SVG/1.1/DTD/svg11.dtd">
<svg version="1.1" id="Layer_1" xmlns="http://www.w3.org/2000/svg" xmlns:xlink="http://www.w3.org/1999/xlink" x="0px" y="0px"
	 viewBox="0 0 122.1 15.2" style="enable-background:new 0 0 122.1 15.2;" xml:space="preserve">
<style type="text/css">
	.Drop_x0020_Shadow{fill:none;}
	.Round_x0020_Corners_x0020_2_x0020_pt{fill:#FFFFFF;stroke:#000000;stroke-miterlimit:10;}
	.Live_x0020_Reflect_x0020_X{fill:none;}
	.Bevel_x0020_Soft{fill:url(#SVGID_1_);}
	.Dusk{fill:#FFFFFF;}
	.Foliage_GS{fill:#FFDD00;}
	.Pompadour_GS{fill-rule:evenodd;clip-rule:evenodd;fill:#44ADE2;}
	.st0{fill:none;}
	.st1{fill:#346734;}
	.st2{fill:#CC6699;}
	.st3{fill:#33669A;}
	.st4{fill:#DB9C37;}
	.st5{fill:#C43837;}
	.st6{fill:#32669A;}
	.st7{fill:#356733;}
</style>
<linearGradient id="SVGID_1_" gradientUnits="userSpaceOnUse" x1="-11.4043" y1="-14.6404" x2="-10.6972" y2="-13.9333">
	<stop  offset="0" style="stop-color:#DEDFE3"/>
	<stop  offset="0.1738" style="stop-color:#D8D9DD"/>
	<stop  offset="0.352" style="stop-color:#C9CACD"/>
	<stop  offset="0.5323" style="stop-color:#B4B5B8"/>
	<stop  offset="0.7139" style="stop-color:#989A9C"/>
	<stop  offset="0.8949" style="stop-color:#797C7E"/>
	<stop  offset="1" style="stop-color:#656B6C"/>
</linearGradient>
<g>
	<g>
		<path d="M4.8,10.2C5.4,10,6,9.8,6.4,9.4c0.4-0.3,0.8-0.9,0.2-1.3C6.1,7.8,5.1,8,4.6,8.4C4.3,8.6,4,8.8,3.8,9.2
			C3.8,9.3,3.7,9.5,3.7,9.6c0,0.1-0.2,0.4,0,0.2c0.2-0.1,0.4-0.3,0.6-0.4c0,0-0.1,0-0.1,0c-0.4,0.1-0.9,0.5-0.9,1
			c0,0.5,0.5,0.6,0.9,0.6C5.4,11.2,7,11.7,8,10.7c0.3-0.3,0.4-0.8,0.3-1.2C8.2,9.3,8.1,9.1,8,8.9C8,8.8,8,8.6,7.9,8.4
			C7.8,8.2,7.7,8,7.6,7.8C7.1,7.4,7.7,8.1,7.5,7.6C7.3,7.2,6.7,7,6.2,6.9C5.6,6.9,4.9,7,4.3,7.4c-0.4,0.3-0.7,0.7-1,1
			C2.9,8.8,3,9.4,3.6,9.6c0.6,0.2,1.6,0,2-0.5C5.8,8.9,5.9,8.7,6,8.6c0,0,0.4-0.4,0.2-0.2C5.9,8.5,5.7,8.6,5.5,8.7
			c-0.4,0.1-1-0.5-0.7,0.1C4.8,9,5,9.1,5,9.2c0.1,0.2,0.1,0.4,0.1,0.6c0,0.1,0.1,0.2,0.1,0.3c0.1,0.1,0.1,0.3,0.2,0.2
			C5.9,10,6.4,9.8,7,9.5c0.2,0-0.2-0.1-0.2-0.1c-0.2,0-0.3,0-0.5-0.1c-0.3,0-0.7-0.1-1-0.1c0,0.5,0,1.1,0.1,1.6
			c0.4-0.2,0.8-0.5,1.1-0.9c0.1-0.1,0.1-0.3,0.2-0.5c0-0.2,0.2-0.2-0.1,0c-0.6-0.3-1.2-0.7-1.8-1c-0.3,0.2,0.1,0-0.2,0.1
			C3.9,8.6,3,9.1,3.1,9.7C3.3,10.4,4.4,10.3,4.8,10.2L4.8,10.2z"/>
	</g>
</g>
<g>
	<g>
		<path d="M15.6,10.8c0.3,0.8,0.9,1.2,1.6,1.5c0.8,0.3,2.4-0.3,2.3-1.3c-0.1-0.6-0.1-1.2-0.4-1.7c-0.1-0.2-0.3-0.4-0.5-0.6
			c-0.1-0.1-0.3-0.2-0.4-0.2c-0.1,0-0.1-0.1-0.2-0.1c-0.1-0.1-0.1,0,0.1,0.1c-0.1-0.9-1.6-0.6-2.1-0.4c-0.6,0.2-0.9,0.8-1.1,1.4
			c0,0.2-0.1,0.4-0.1,0.5c-0.1,0.2-0.3,0.4-0.5,0.5c-0.7,0.6,0,1.3,0.7,1.4c0.4,0,0.9,0,1.4,0.1c0.3,0.1,0.6,0.3,0.9,0.5
			c0.6,0.4,1.5,0.2,2.1-0.2c0.5-0.4,0.8-1,0.2-1.4c-0.5-0.3-1-0.7-1.6-0.8c-0.6-0.1-1.3-0.2-1.9-0.2c0.2,0.5,0.5,0.9,0.7,1.4
			c0.3-0.3,0.7-0.6,0.9-1c0.1-0.2,0.1-0.4,0.2-0.6c0-0.1,0.1-0.5,0.1-0.4c-0.2,0.1-0.4,0.3-0.6,0.4c0,0,0,0,0.1,0
			c-0.7-0.1-1.4-0.3-2.1-0.4c0,0.3,0.3,0.6,0.5,0.8c0.2,0.1,0.5,0.2,0.7,0.3c0.3,0.3,0.3,1,0.3,1.4c0.8-0.4,1.5-0.9,2.3-1.3
			c-0.2-0.1-0.3-0.3-0.4-0.4c-0.3-0.6-1.1-0.7-1.7-0.5C16.4,9.6,15.3,10.2,15.6,10.8L15.6,10.8z"/>
	</g>
</g>
<g>
	<g>
		<path d="M27.8,7.3c-0.1,0.4,0.1,0.7,0.4,1c0.4,0.3,0.5,0.5,0.8,0.9c0.6,0.7,1.4,1.2,2.2,1.3c0.7,0.1,1.5-0.1,2-0.5
			c0.4-0.3,0.4-0.8-0.2-0.8c-0.5-0.1-1.1-0.6-1.4-1c-0.2-0.2-0.3-0.5-0.5-0.6c-0.2-0.1-0.7-0.3-0.6-0.6C30.8,5.9,27.9,6.4,27.8,7.3
			L27.8,7.3z"/>
	</g>
</g>
<g>
	<g>
		<path d="M26.5,8c-0.4,0.6-0.7,1.8-0.1,2.5c0.8,0.8,2.2,0.5,3.1,0.2c0.5-0.2,1.1-0.9,0.7-1.4c-0.5-0.6-1.4-0.4-2-0.2
			c0,0,0.4-0.2,0.5-0.1c0.1,0.1,0.2,0.3,0.3,0.4c-0.1-0.4,0-0.7,0.2-1.1c0.4-0.6-0.4-1.1-0.9-1.1C27.7,7.1,27,7.4,26.5,8L26.5,8z"/>
	</g>
</g>
<g>
	<g>
		<path d="M30.8,6.7c0-0.2,0.1-0.3,0.1-0.5c0-0.2-0.1-0.3-0.1-0.4c0-0.5-2.9-0.1-2.9,0.8c0,0.2,0.1,0.3,0.1,0.4
			c0,0.2-0.1,0.4-0.1,0.5C27.9,7.9,30.7,7.6,30.8,6.7L30.8,6.7z"/>
	</g>
</g>
<g>
	<g>
		<path d="M37.4,8.3c0.2,0.4,0.3,0.8,0.6,1c0.4,0.3,0.9,0.3,1.3,0.4c0.3,0,0.5,0.1,0.7,0.2c0.4,0.2,0.5,0.5,1,0.6
			c-0.2-0.1-0.3-0.2-0.5-0.3c0,0,0,0.1,0.1,0.1c0.7,0.9,3.5-0.2,2.7-1.2C43.1,9,43,8.9,42.9,8.8c-0.1,0-0.4-0.2-0.2-0.1
			c-0.3-0.2-0.5-0.4-0.9-0.6C41.5,8,41.2,8,40.9,7.9c-0.1,0-0.4,0-0.5-0.1c0.2,0.1-0.1-0.3-0.1-0.3c-0.3-0.6-1.1-0.6-1.7-0.5
			C38.2,7.2,37.1,7.7,37.4,8.3L37.4,8.3z"/>
	</g>
</g>
<g>
	<g>
		<path d="M39.1,9.9c0.6,0,3.3-1.1,1.9-1.1C40.4,8.8,37.7,9.9,39.1,9.9L39.1,9.9z"/>
	</g>
</g>
<g>
	<g>
		<path d="M39,9.2c0,0.2,0,0.3,0,0.5c-0.1,0.6,0.8,0.5,1.2,0.4c0.4-0.1,0.8-0.2,1.1-0.4c0.2-0.1,0.6-0.3,0.6-0.5c0-0.3,0-0.5,0-0.8
			C41.9,7.7,38.9,8.3,39,9.2L39,9.2z"/>
	</g>
</g>
<g>
	<g>
		<path d="M42.6,8.4C42.8,8.2,43,8,43,7.6c0-0.3-0.4-0.6-0.3-0.9c-0.7,0.3-1.4,0.5-2.1,0.8c0,0,0.1,0,0.1,0c-0.2,0-0.5,0-0.7-0.1
			c0.1,0.1,0.1,0.1,0,0.1c0.8-0.3,1.6-0.5,2.4-0.8c-0.1,0-0.7-0.1-0.8-0.2c-0.1-0.1-0.1,0,0-0.2c0-0.1,0.1-0.2,0-0.3
			c0-0.4-2.9,0.1-2.9,0.8c0,0.2-0.1,0.3-0.1,0.5c0.1,0.2,0.3,0.2,0.4,0.3c0.5,0.1,1.1,0.3,1.6,0.3c0.5,0,1-0.2,1.4-0.3
			c0.3-0.1,0.7-0.3,0.8-0.5c0.2-0.6-0.7-0.6-1-0.5c-0.4,0-0.9,0.2-1.3,0.3c-0.2,0.1-0.7,0.2-0.8,0.5c-0.1,0.5,0.6,1,0.2,1.4
			c-0.4,0.4,0.4,0.4,0.7,0.4C41.2,9.1,42.1,8.9,42.6,8.4L42.6,8.4z"/>
	</g>
</g>
<g>
	<g>
		<path d="M39.3,6.5c0,0.1,0.1,0.1,0.1,0.2c0.2,0.7,3.1-0.2,2.9-0.8c0-0.1,0-0.1-0.1-0.2C41.7,5.1,39.1,6.2,39.3,6.5L39.3,6.5z"/>
	</g>
</g>
<g>
	<g>
		<path d="M50.7,8.5C51.1,8.7,51.6,9,52,9.3c0.2,0.1,0.7,0.6,0.3,0.9c0.4-0.2,0.8-0.4,1.2-0.5c1-0.3,0.4-0.1,0-0.1
			c-0.3,0-0.6,0.1-0.9,0.2c0.5,0.1,1,0.1,1.5,0.2c0.1-0.3,0.1-0.5,0.1-0.8c0-0.4-1.2-0.1-1.4-0.1c-0.5,0.1-1.2,0.3-1.5,0.7
			c-0.5,0.6,0.5,1.1,1,1.2c0.7,0.1,2.6-0.2,2.7-1.1c0.1-0.4,0-0.9,0-1.3c0-0.4,0.1-0.8-0.2-1.1c-0.2-0.3-0.5-0.3-0.8-0.4
			C53.6,7,53.9,7,53.6,6.7c-0.3-0.4-1.5,0-1.9,0.2c-0.2,0.1-1.2,0.4-0.9,0.8c0,0,0,0.2,0.1,0.2C51,8,51.2,8,51.3,8.1
			c0.2,0.1,0.6,0,0.8,0.2c0.2,0.2,0.2,0.7,0.2,1c0,0.4,0.1,1,0,1.4c0.2-0.1,0.4-0.3,0.6-0.4c0,0-0.1,0-0.1,0.1
			c0.6-0.1,1.2-0.3,1.8-0.4c-0.2,0-0.4-0.4-0.2-0.5c-1,0.2-1.9,0.4-2.9,0.7c0,0.2,0,0.4,0,0.5c-0.1,0.6,1.3,0.2,1.5,0.2
			c-0.6,0.1-0.7,0.1-0.2,0.1c0.2,0,0.4,0,0.5-0.1c0.3-0.1,0.6-0.1,0.9-0.3c0.5-0.2,1.1-0.5,1.2-1.1c0.1-0.9-1.1-1.4-1.8-1.8
			c-0.5-0.3-1.4,0-1.9,0.2C51.5,7.7,50.3,8.3,50.7,8.5L50.7,8.5z"/>
	</g>
</g>
<g>
	<g>
		<path d="M52.1,8c1.2,0,3-1.8,1.1-1.8C52,6.2,50.2,8,52.1,8L52.1,8z"/>
	</g>
</g>
<g>
	<g>
		<path d="M54.1,6.8c0-0.2,0-0.3-0.1-0.4c-0.4-0.4-1.4,0-1.9,0.1c-0.2,0.1-1.3,0.5-0.8,0.9c0,0,0,0,0.1,0.1c0-0.1,0-0.2-0.1-0.3
			c0,0,0,0.1,0,0.1c-0.1,0.5,0.9,0.4,1.2,0.3c0.4-0.1,0.8-0.2,1.1-0.3C53.7,7.2,54.1,7,54.1,6.8L54.1,6.8z"/>
	</g>
</g>
<g>
	<g>
		<path d="M71.5,5.6c-1,0-2.2,0.5-2.7,1.4c-0.2,0.4-0.2,0.8-0.2,1.3c0,0.3,0.3,0.9,0.3,1.1c0.1-0.2,0.2-0.3,0.3-0.5
			c0,0,0,0.1-0.1,0.1c0.2-0.1,0.4-0.3,0.6-0.4c0,0-0.1,0-0.1,0c0.5,0.5,1,0.9,1.6,1.4c0.3-0.2,0.6-0.5,0.9-0.7
			c0.3-0.2,0.6-0.3,0.9-0.5c0.8-0.6,0.9-1.5,0.4-2.3c-0.3-0.6-1.5-0.4-2-0.2c-0.6,0.3-1,0.8-0.7,1.4c0,0.1,0,0.1,0,0.2
			c0.4-0.3,0.5-0.3,0.3-0.2c-0.2,0.1-0.5,0.2-0.7,0.3c-0.4,0.2-0.7,0.5-1,0.8c-0.4,0.3-0.8,0.9-0.3,1.3c0.5,0.4,1.3,0.3,1.8,0.1
			c0.8-0.3,1.2-1,0.9-1.8c-0.1-0.3-0.2-0.6-0.2-0.9c0-0.1,0.1-0.3,0.1-0.3c-0.2,0.1-0.5,0.2-0.7,0.4c0.1,0,0.2,0,0.3,0
			c0.6,0,1.5-0.4,1.6-1.1C72.9,5.7,72,5.6,71.5,5.6L71.5,5.6z"/>
	</g>
</g>
<g>
	<g>
		<path d="M85.6,10.6c-0.2-0.4-0.5-0.6-0.7-1c-0.1-0.2-0.3-0.8-0.3-1c-0.1,0.1-0.2,0.3-0.3,0.4c0,0,0.1-0.1,0.1-0.1
			c-0.3,0.2-0.6,0.3-1,0.5c0,0,0.1,0,0.1,0c-0.4,0-0.7,0.1-1.1,0.1c0,0,0,0,0,0c-0.1-0.1-0.2-0.2-0.3-0.3c0,0,0,0,0,0.1
			c0.4-0.3,0.8-0.6,1.3-0.9c0,0,0,0-0.1,0c0.5,0,1,0.1,1.5,0.1c-0.2-0.3-0.3-0.7-0.5-0.9c-0.8,0.4-1.7,0.8-2.5,1.2
			C82.1,8.9,82.3,9,82.6,9c0.7,0.1,1.5-0.1,2-0.5c0.5-0.4,0.3-0.8-0.3-0.9c0,0,0-0.1-0.1-0.1c-0.6-0.4-3.2,0.4-2.5,1.2
			C82,9,82,9.3,82.3,9.6c0.3,0.4,1.1,0.2,1.5,0.1c0.5-0.1,1.9-0.8,1.2-1.5c-0.6-0.6-1.9-0.3-2.5,0c-0.3,0.2-0.7,0.4-0.8,0.7
			c-0.1,0.2,0,0.5,0.1,0.8c0.1,0.3,0.2,0.6,0.4,0.9c0.2,0.3,0.4,0.4,0.6,0.7C83.2,12.3,86,11.3,85.6,10.6L85.6,10.6z"/>
	</g>
</g>
<g>
	<g>
		<path d="M82.5,7.3c-0.7,0.1-1.7,0.4-2.1,1.1c-0.1,0.3-0.1,0.5-0.1,0.8c0,0.4-0.1,0.4-0.4,0.7c-0.3,0.3-0.7,0.9-0.3,1.2
			c0.6,0.5,1.7,0.1,2.2,0c-0.4,0-0.7-0.1-1.1-0.1c0.4,0.2,0.7,0.4,1.1,0.4c0.7,0.1,1.5-0.1,2-0.5c0.4-0.3,0.4-0.7-0.2-0.8
			c-0.1,0-0.2-0.1-0.3-0.1c-0.2-0.1-0.4-0.1-0.6-0.2c-0.2,0-0.5,0-0.7,0.1c-0.1,0-0.6,0-0.2,0.1c0.1,0.1,0.3,0.1,0.4,0.2
			c0,0,0.7-0.7,0.7-0.9c0.2-0.4,0-1,0.3-1.2c-0.2,0.1-0.3,0.2-0.5,0.3c0,0,0.1,0,0.1-0.1c-0.4,0.1-0.7,0.2-1.1,0.4c0,0,0.1,0,0.1,0
			c0.5-0.1,1.6-0.3,1.7-0.9C83.8,7.2,82.7,7.3,82.5,7.3L82.5,7.3z"/>
	</g>
</g>
<g>
	<g>
		<path d="M96.9,10.7c0-0.9-0.1-1.7-0.2-2.5c-0.3-1.3-3.2-0.6-2.9,0.8c0.1,0.7,0.2,1.3,0.2,2c0,0.7,0.7,1,1.3,0.9
			C95.8,11.8,96.9,11.4,96.9,10.7L96.9,10.7z"/>
	</g>
</g>
<g>
	<g>
		<path d="M94.8,7c-0.9,0.1-3.5,0.5-2.4,2c0.1,0.2,0.3,0.3,0.5,0.5C93,9.7,93,9.9,93,10.2c0,0.5-0.1,0.9,0.4,1.2
			c0.6,0.3,1.5,0,2-0.3c0.3-0.2,0.9-0.7,0.3-0.9c0.2,0.1,0-1.2,0-1.3c-0.1-0.2-0.9-0.9-0.8-1.1c-0.4,0.2-0.8,0.4-1.2,0.6
			c-0.5,0.1-0.6,0.1-0.2,0.1c0.6,0,1.5-0.2,1.9-0.7C95.9,7.1,95.2,7,94.8,7L94.8,7z"/>
	</g>
</g>
<g>
	<g>
		<path d="M105.8,6.7c0.1,0.3,0.3,0.5,0.5,0.8c0.2,0.3,0,0.5,0.1,0.8c0.1,0.4,0.6,0.6,1,0.6c0.6,0,1.3-0.2,1.8-0.6
			c0.5-0.4,0.3-0.9-0.3-1.1c-0.7-0.2-1.5,0.1-2,0.5c0,0,0,0,0,0c0.7-0.2,1.4-0.4,2-0.5c0,0,0,0-0.1,0c0.2,0.1,0.4,0.3,0.6,0.4
			c-0.1-0.3,0-0.7-0.2-1c-0.1-0.3-0.4-0.4-0.5-0.7c-0.2-0.6-1.2-0.5-1.7-0.4C106.7,5.6,105.6,6.1,105.8,6.7L105.8,6.7z"/>
	</g>
</g>
<g>
	<g>
		<path d="M105.7,6.7c1,0.8,1.3,1.8,1.5,3c0.8-0.4,1.6-0.8,2.3-1.2c-1-0.3-1.9-0.5-3-0.1c-0.6,0.2-1.9,1-1.3,1.8
			c0.5,0.6,1.7,0.1,2.2-0.1c0.6-0.3,0.9-1.1,0.5-1.7c-0.2-0.2-0.4-0.3-0.3-0.6c0.1-0.4,0.2-0.6,0.2-1c-0.1-1-3-0.3-2.9,0.8
			c0.1,0.5-0.4,0.8-0.2,1.3c0.1,0.4,0.6,0.5,0.5,0.9c0.2-0.2,0.4-0.4,0.5-0.6c0,0-0.1,0-0.1,0.1c0.7,0,1.5-0.1,2.2-0.1
			c0,0,0-0.1-0.1-0.1c0,0.1,0.1,0.3,0.1,0.4c-1.4,0.2-1.9,0.4-1.3,0.6c0.1,0,0.2,0.1,0.3,0.1c0.2,0.1,0.4,0.1,0.7,0.2
			c0.6,0.2,2.5-0.2,2.3-1.2c-0.2-1.3-0.7-2.5-1.7-3.3c-0.5-0.4-1.3-0.3-1.9,0C106.2,5.7,105.2,6.3,105.7,6.7L105.7,6.7z"/>
	</g>
</g>
<g>
	<rect x="0" y="0" class="st0" width="122.1" height="15.2"/>
	<path class="st1" d="M3,5.6C3,5.8,3,6,3,6.2c0,0.2-0.1,0.3-0.2,0.5C2.7,6.8,2.6,6.9,2.5,7C2.4,7,2.2,7.1,2.1,7.1
		C1.9,7.1,1.7,7,1.6,6.9S1.3,6.6,1.1,6.4C1,6.2,0.9,5.9,0.9,5.7C0.8,5.4,0.7,5.1,0.7,4.9c0-0.9,0.4-1.3,1.2-1.3
		c0.2,0,0.3,0.1,0.4,0.2C2.5,3.9,2.6,4,2.7,4.2s0.2,0.4,0.2,0.7S3,5.4,3,5.6z M9.6,10.5c0,1.4-0.5,2-1.4,2c-0.2,0-0.4,0-0.7-0.1
		S7,12.2,6.7,12c-0.3-0.1-0.6-0.2-0.9-0.3c-0.3-0.1-0.4-0.1-0.5-0.1c-0.1,0-0.2,0-0.4,0c-0.2,0-0.4,0-0.6,0.1c-0.2,0-0.4,0-0.6,0.1
		c-0.2,0-0.3,0-0.4,0c-1.2,0-1.8-0.6-1.8-1.8c0-0.3,0-0.6,0.1-0.8s0.1-0.4,0.2-0.6C1.7,8.5,1.9,8.3,2,8.2S2.5,8,2.8,8
		C3,7.9,3.2,7.9,3.3,7.8c0.2-0.1,0.3-0.1,0.4-0.2C3.8,7.5,3.9,7.4,4,7.2C4.1,7.1,4.2,7,4.4,6.8c0.1-0.1,0.2-0.3,0.3-0.4
		c0.1-0.1,0.2-0.2,0.3-0.2C5,6.2,5.1,6.1,5.3,6.1s0.3,0,0.5,0c0.3,0,0.5,0,0.7,0.1S6.8,6.3,7,6.4c0.2,0.1,0.3,0.3,0.5,0.6
		s0.3,0.6,0.5,1.1C8,8.3,8.1,8.5,8.3,8.6C8.4,8.8,8.7,9,9,9.2C9.4,9.6,9.6,10,9.6,10.5z M5.8,3.2c0,0.6,0,1-0.1,1.3
		C5.6,4.8,5.6,5,5.5,5.2C5.4,5.3,5.2,5.4,5.1,5.4c-0.1,0-0.3,0.1-0.5,0.2C3.9,5.5,3.5,4.7,3.5,3.3c0-1.2,0.5-1.8,1.5-1.8
		C5.5,1.4,5.8,2,5.8,3.2z M7.5,7.8C7.4,7.7,7.3,7.6,7.2,7.5C7.1,7.4,7,7.4,6.9,7.3L6.7,7.6C6.2,7.4,5.8,7.3,5.6,7.3
		c-0.3,0-0.5,0-0.7,0.1C4.6,7.5,4.4,7.6,4.2,7.8C4.1,7.9,3.9,8.1,3.8,8.3C3.7,8.5,3.7,8.7,3.7,8.9c0,0.2,0,0.4,0.1,0.6
		C3.9,9.8,4,10,4.1,10.1c0.1,0.2,0.3,0.3,0.4,0.5c0.2,0.1,0.3,0.2,0.5,0.2c0.1,0,0.1,0,0.3,0c0.1,0,0.2,0,0.4,0.1
		c0.1,0,0.2,0.1,0.4,0.1c0.1,0,0.2,0,0.3,0c0.4,0,0.7-0.1,0.8-0.3L6.9,9.8c-1.2,0-1.7-0.3-1.7-1c0-0.2,0.3-0.3,1-0.3
		C6.7,8.5,7,8.6,7,8.8L7.5,7.8z M9.4,3.4c0,0.4,0,0.7-0.1,1.1C9.2,4.8,9.1,5.1,9,5.3C8.8,5.5,8.6,5.7,8.4,5.8S8,6,7.7,6
		C7.4,6,7.2,5.9,7,5.7C6.9,5.5,6.8,5.3,6.8,5c0-0.4,0-0.8,0.1-1.1C7,3.6,7.1,3.3,7.3,3c0.2-0.3,0.4-0.5,0.6-0.6
		c0.2-0.2,0.5-0.2,0.8-0.2C9.2,2.1,9.4,2.6,9.4,3.4z M11.5,6.6c0,1.2-0.5,1.8-1.6,1.8c-0.4,0-0.6-0.2-0.6-0.7c0-0.2,0-0.4,0.1-0.7
		c0.1-0.2,0.2-0.5,0.4-0.7S10,6,10.2,5.9s0.4-0.2,0.6-0.2c0.2,0,0.4,0.1,0.5,0.3C11.4,6.1,11.5,6.3,11.5,6.6z"/>
	<path class="st2" d="M20.7,11.8c0,0.3,0,0.5-0.1,0.8c-0.1,0.2-0.2,0.5-0.3,0.7c-0.1,0.2-0.3,0.4-0.5,0.5c-0.2,0.1-0.4,0.2-0.6,0.2
		c-0.2,0-0.5-0.1-0.8-0.2c-0.3-0.1-0.6-0.3-0.9-0.5c-0.3-0.2-0.6-0.3-0.8-0.5c-0.3-0.1-0.4-0.2-0.5-0.3l-2.3-0.2
		c-0.9-0.2-1.4-0.7-1.4-1.5c0-0.5,0-0.8,0.1-1.1C12.7,9.4,12.9,9.2,13,9c0.1-0.2,0.3-0.3,0.5-0.3c0.2-0.1,0.4-0.1,0.6-0.1
		c0.2,0,0.4-0.1,0.7-0.1c0.2,0,0.4-0.1,0.6-0.3l0.8-0.7c0.3-0.3,0.6-0.4,0.9-0.4c0.3,0,0.6,0,0.8,0.1s0.4,0.2,0.6,0.4
		c0.2,0.2,0.3,0.4,0.5,0.8c0.1,0.3,0.3,0.7,0.4,1.3c0,0.2,0.1,0.3,0.3,0.5c0.1,0.2,0.3,0.4,0.4,0.6c0.2,0.2,0.3,0.4,0.4,0.6
		C20.7,11.4,20.7,11.6,20.7,11.8z M15.1,5.6c0,0.2,0,0.5-0.1,0.7c0,0.2-0.1,0.4-0.2,0.6c-0.1,0.2-0.2,0.3-0.3,0.4
		c-0.1,0.1-0.3,0.1-0.5,0.1s-0.3,0-0.5-0.1c-0.1-0.1-0.3-0.2-0.3-0.4C13.1,6.7,13,6.5,13,6.3c-0.1-0.2-0.1-0.5-0.1-0.7
		c0-0.5,0.1-0.9,0.3-1.2C13.4,4.1,13.6,4,14,4C14.7,4,15.1,4.5,15.1,5.6z M18.9,9.6c0-0.2-0.1-0.3-0.3-0.5c-0.2-0.2-0.4-0.3-0.7-0.5
		c-0.3-0.1-0.6-0.2-0.9-0.3s-0.6-0.1-0.9-0.1l-0.2,0c0,0.1-0.2,0.4-0.4,0.9l0.5,0.1c0,0.1-0.1,0.3-0.1,0.5s-0.2,0.3-0.3,0.5
		c-0.1,0.2-0.2,0.3-0.4,0.5c-0.1,0.2-0.3,0.3-0.4,0.4c-0.1,0.1-0.2,0.2-0.3,0.3c-0.1,0.1-0.1,0.1-0.1,0.1l0.6,0.3
		c0.1,0.1,0.2,0.1,0.4,0.1c0.1,0,0.2,0,0.3,0c0,0,0.1,0,0.1-0.1c0.1-0.1,0.1-0.2,0.2-0.4l0.3-0.6c0.1,0.2,0.2,0.4,0.2,0.5
		c0,0.1,0.1,0.3,0.1,0.3c0,0.2-0.1,0.3-0.3,0.4l0.8,0.3c0.2,0.1,0.4,0.1,0.5,0.2s0.2,0.1,0.4,0l0.1,0c0-0.1,0-0.3-0.1-0.5
		c-0.1-0.2-0.1-0.4-0.2-0.6s-0.1-0.4-0.2-0.5c-0.1-0.2-0.1-0.3-0.1-0.3C18.5,10.5,18.9,10.2,18.9,9.6z M18.3,3.4c0,0,0,0.1,0,0.3
		c0,0.1,0,0.3-0.1,0.5c0,0.2-0.1,0.4-0.1,0.6S18,5.2,17.9,5.4c-0.1,0.2-0.1,0.4-0.2,0.5c-0.1,0.1-0.2,0.2-0.2,0.3l-0.9,0.2
		c-0.5-0.2-0.7-0.7-0.7-1.5c0-1.7,0.5-2.5,1.5-2.5c0.4,0,0.6,0.1,0.8,0.2S18.3,3,18.3,3.4z M17.6,9.7c0,0,0,0.1-0.1,0.1
		s-0.1,0.1-0.2,0.1c-0.1,0-0.1,0.1-0.2,0.1s-0.2,0-0.2,0c-0.1,0-0.2,0-0.2-0.1c0-0.1,0-0.2,0.1-0.3l0.2-0.3
		C17.3,9.4,17.6,9.5,17.6,9.7z M21.8,4.6c0,0.3-0.1,0.7-0.2,1s-0.2,0.6-0.4,0.9C21,6.8,20.8,7,20.6,7.2s-0.5,0.2-0.7,0.2
		c-0.1,0-0.3,0-0.4-0.1c-0.1,0-0.2-0.1-0.3-0.2C19.1,7.1,19,7,18.9,6.9c-0.1-0.1-0.1-0.2-0.1-0.4c0-0.3,0.1-0.6,0.2-0.9
		c0.1-0.3,0.3-0.6,0.5-0.9c0.2-0.3,0.4-0.5,0.7-0.7s0.5-0.3,0.8-0.3C21.5,3.7,21.8,4,21.8,4.6z M23.2,8.4c0,0.2,0,0.5-0.1,0.7
		c-0.1,0.2-0.2,0.4-0.3,0.6c-0.1,0.2-0.3,0.3-0.5,0.4s-0.4,0.1-0.6,0.1c-0.6,0-0.9-0.2-0.9-0.7c0-0.2,0.1-0.4,0.2-0.6
		c0.1-0.2,0.3-0.4,0.4-0.6s0.4-0.4,0.6-0.5c0.2-0.1,0.4-0.2,0.6-0.2c0.2,0,0.4,0.1,0.5,0.3C23.1,8,23.2,8.1,23.2,8.4z"/>
	<path class="st3" d="M26.5,5.8c0,0.3-0.1,0.5-0.2,0.7c-0.1,0.2-0.3,0.3-0.6,0.3c-0.2,0-0.4-0.1-0.6-0.2c-0.2-0.1-0.4-0.3-0.5-0.6
		c-0.2-0.2-0.3-0.5-0.4-0.7S24,4.8,24,4.5c0-0.3,0.1-0.6,0.3-0.8c0.2-0.2,0.5-0.3,0.8-0.3c0.2,0,0.4,0.1,0.5,0.2
		c0.2,0.2,0.3,0.3,0.4,0.6s0.2,0.5,0.3,0.8C26.4,5.3,26.5,5.5,26.5,5.8z M34,9.3c0,1.1-0.5,1.6-1.5,1.6c-0.1,0-0.3,0-0.5,0
		c-0.2,0-0.4-0.1-0.7-0.1c-0.2,0-0.5-0.1-0.7-0.1c-0.2,0-0.4,0-0.5,0c-0.1,0-0.3,0-0.6,0.1c-0.3,0.1-0.5,0.2-0.8,0.2
		s-0.6,0.2-0.8,0.2c-0.3,0.1-0.5,0.1-0.6,0.1c-1,0-1.6-0.7-1.6-2.1c0-0.2,0-0.4,0-0.6c0-0.2,0.1-0.3,0.2-0.4C25.9,8,26,7.9,26.2,7.8
		s0.4-0.2,0.6-0.4c0.2-0.1,0.3-0.2,0.5-0.3c0.1-0.1,0.2-0.2,0.3-0.3c0.1-0.1,0.2-0.2,0.2-0.4c0.1-0.2,0.2-0.3,0.3-0.6
		c0.1-0.2,0.2-0.3,0.3-0.4c0.1-0.1,0.2-0.2,0.3-0.3c0.1-0.1,0.3-0.1,0.4-0.1s0.4,0,0.6,0c0.2,0,0.4,0,0.5,0.1c0.2,0,0.3,0.1,0.5,0.2
		c0.2,0.1,0.3,0.3,0.5,0.5s0.4,0.5,0.6,0.8c0.2,0.3,0.6,0.6,1,0.8c0.3,0.1,0.5,0.2,0.7,0.3s0.3,0.2,0.4,0.4c0.1,0.1,0.1,0.3,0.1,0.5
		S34,9,34,9.3z M28.9,3.9c0,0.1,0,0.2-0.1,0.3c-0.1,0.1-0.1,0.2-0.2,0.3c-0.1,0.1-0.2,0.1-0.3,0.2S28.1,4.8,28,4.8l-0.1,0
		c-0.2,0-0.4-0.1-0.6-0.3s-0.3-0.4-0.5-0.7S26.6,3.4,26.5,3s-0.1-0.6-0.1-1c0-0.2,0-0.4,0.1-0.5s0.2-0.3,0.3-0.4
		C26.8,1,27,0.9,27.1,0.8c0.2-0.1,0.3-0.1,0.5-0.1c0.2,0,0.3,0.1,0.5,0.3c0.1,0.2,0.3,0.5,0.4,0.8c0.1,0.3,0.2,0.7,0.3,1
		C28.8,3.2,28.9,3.5,28.9,3.9z M32.2,10.2c-0.2-0.4-0.4-0.7-0.6-1.1c-0.2-0.4-0.4-0.7-0.7-1.1c-0.3-0.6-0.5-1-0.7-1.3
		C30.1,6.4,30,6.1,30,6h-1.4l0,0c0,0.2-0.2,0.5-0.5,1c0,0,0,0,0.1,0c0.1,0,0.2,0,0.3,0c0,0.3,0,0.5,0,0.5c0,0.3-0.1,0.5-0.2,0.8
		c-0.1,0.3-0.3,0.6-0.4,0.8s-0.3,0.5-0.4,0.7s-0.2,0.4-0.2,0.5c0.3,0.1,0.6,0.1,0.9,0.1c0.2,0,0.5,0,0.8-0.1l0-0.1
		c0-0.1,0-0.3,0.1-0.6l1-0.1l0.3,0.6c0.2,0,0.4,0.1,0.6,0.1c0.2,0,0.4,0,0.6,0c0.1,0,0.3,0,0.4,0C32.1,10.3,32.2,10.3,32.2,10.2z
		 M29.9,8.8h-0.6l0.2-0.9L29.9,8.8z M32.3,2.6c0,0.3,0,0.6-0.1,0.8c-0.1,0.2-0.2,0.5-0.3,0.6c-0.1,0.2-0.3,0.3-0.4,0.4
		c-0.2,0.1-0.3,0.1-0.5,0.1s-0.4,0-0.5-0.1s-0.2-0.2-0.3-0.3S30,3.9,30,3.7s-0.1-0.5-0.1-0.8c0-0.3,0-0.6,0.1-0.9
		c0.1-0.3,0.2-0.5,0.3-0.7c0.1-0.2,0.3-0.4,0.4-0.5c0.2-0.1,0.4-0.2,0.6-0.2c0.3,0,0.5,0.2,0.7,0.6C32.2,1.5,32.3,2,32.3,2.6z M35,5
		c0,0.2,0,0.4-0.1,0.6c-0.1,0.2-0.2,0.4-0.3,0.5s-0.3,0.3-0.5,0.3c-0.2,0.1-0.4,0.1-0.6,0.1c-0.4,0-0.6-0.3-0.6-0.9
		c0-0.2,0-0.5,0.1-0.7s0.2-0.5,0.3-0.6c0.1-0.2,0.2-0.3,0.4-0.5c0.1-0.1,0.3-0.2,0.5-0.2C34.7,3.6,35,4,35,5z"/>
	<path class="st4" d="M44.4,10c0,0.2,0,0.5-0.1,0.7s-0.2,0.5-0.3,0.7c-0.1,0.2-0.3,0.4-0.5,0.5c-0.2,0.1-0.4,0.2-0.6,0.2
		c-0.3,0-0.5-0.1-0.8-0.2c-0.2-0.1-0.5-0.3-0.8-0.5c-0.4-0.3-0.6-0.5-0.9-0.7c-0.2-0.2-0.4-0.3-0.6-0.3c-0.4-0.1-0.9-0.2-1.3-0.2
		c-0.4-0.1-0.8-0.2-1.1-0.3c-0.3-0.1-0.6-0.3-0.8-0.5S36.3,9,36.3,8.6c0-0.4,0-0.7,0.1-1s0.1-0.5,0.3-0.7s0.3-0.3,0.5-0.4
		c0.2-0.1,0.5-0.1,0.8-0.2c0.7,0,1.1-0.2,1.5-0.3c0.2-0.2,0.5-0.4,0.6-0.5c0.2-0.1,0.4-0.2,0.5-0.3c0.2-0.1,0.4-0.1,0.5-0.1
		c0.3,0,0.6,0,0.9,0.1c0.2,0.1,0.4,0.2,0.6,0.4c0.2,0.2,0.3,0.5,0.4,0.8s0.2,0.8,0.3,1.3c0,0.2,0.1,0.3,0.2,0.5
		c0.1,0.2,0.2,0.4,0.4,0.6c0.1,0.2,0.2,0.4,0.4,0.6C44.3,9.7,44.4,9.9,44.4,10z M39.3,3.1c0,0.3,0,0.5-0.1,0.8
		c-0.1,0.3-0.1,0.5-0.2,0.7c-0.1,0.2-0.2,0.4-0.4,0.5c-0.1,0.1-0.3,0.2-0.5,0.2c-0.2,0-0.3,0-0.4-0.1c-0.1-0.1-0.2-0.2-0.3-0.4
		s-0.1-0.3-0.2-0.5c0-0.2-0.1-0.4-0.1-0.7c0-0.2,0-0.5,0.1-0.7c0.1-0.2,0.1-0.4,0.2-0.6c0.1-0.2,0.2-0.3,0.4-0.4
		c0.1-0.1,0.3-0.1,0.5-0.1C38.9,1.7,39.3,2.2,39.3,3.1z M42.6,6.9c-0.2,0-0.4-0.1-0.6-0.1c-0.2-0.1-0.5-0.1-0.8-0.2
		s-0.5-0.2-0.7-0.3c-0.2-0.1-0.4-0.2-0.6-0.3c-0.1,0.1-0.2,0.3-0.3,0.4c-0.1,0.2-0.3,0.4-0.4,0.6c0.3,0.1,0.5,0.1,0.8,0.2
		s0.5,0.2,0.8,0.3c-0.2,0.2-0.9,0.5-2.1,0.7c-0.3,0.3-0.5,0.7-0.5,1.2c0.4,0.1,1,0.3,1.6,0.4c0.6,0.2,1.4,0.4,2.3,0.6
		c0-0.1,0.1-0.3,0.1-0.5s0.1-0.4,0.1-0.6c-0.2-0.1-0.5-0.1-0.9-0.2c-0.3-0.1-0.7-0.2-1.2-0.3c0.3-0.2,0.7-0.4,1.1-0.4
		c0,0,0.4-0.1,1.2-0.2L42.6,6.9z M42.6,1.4c0,0,0,0.1,0,0.3c0,0.1-0.1,0.3-0.1,0.5c0,0.2-0.1,0.4-0.2,0.7c-0.1,0.2-0.1,0.5-0.2,0.7
		S42,3.9,41.9,4s-0.2,0.2-0.3,0.3l-0.9,0.1c-0.4-0.2-0.6-0.6-0.6-1.3c0-0.4,0-0.7,0.1-1.1c0.1-0.3,0.2-0.6,0.3-0.9
		C40.6,1,40.8,0.8,41,0.7c0.2-0.1,0.4-0.2,0.7-0.2C42.3,0.5,42.6,0.8,42.6,1.4z M46,3c0,0.3-0.1,0.6-0.2,0.9
		c-0.1,0.3-0.3,0.6-0.5,0.9c-0.2,0.3-0.4,0.5-0.6,0.7c-0.2,0.2-0.5,0.3-0.7,0.3c-0.1,0-0.3,0-0.4-0.1s-0.2-0.1-0.3-0.2
		c-0.1-0.1-0.2-0.2-0.2-0.3C43,5.1,42.9,5,42.9,4.8c0-0.3,0.1-0.6,0.2-0.9c0.1-0.3,0.3-0.6,0.5-0.9s0.4-0.5,0.7-0.7
		c0.3-0.2,0.5-0.3,0.7-0.3C45.7,2.1,46,2.4,46,3z M47.1,6.9c0,0.2,0,0.4-0.1,0.6s-0.2,0.4-0.3,0.6c-0.1,0.2-0.3,0.3-0.5,0.4
		c-0.2,0.1-0.4,0.2-0.6,0.2c-0.7,0-1-0.2-1-0.7c0-0.2,0.1-0.4,0.2-0.6c0.1-0.2,0.3-0.4,0.5-0.6c0.2-0.2,0.4-0.3,0.6-0.5
		c0.2-0.1,0.4-0.2,0.6-0.2c0.2,0,0.4,0.1,0.5,0.2C47.1,6.4,47.1,6.6,47.1,6.9z"/>
	<path class="st5" d="M50,5.6c0,0.9-0.3,1.3-0.9,1.3c-0.2,0-0.4-0.1-0.6-0.2c-0.2-0.1-0.3-0.3-0.5-0.5C48,6,47.9,5.7,47.8,5.4
		s-0.1-0.5-0.1-0.8c0-0.4,0.1-0.6,0.3-0.9c0.2-0.2,0.5-0.3,0.8-0.3c0.2,0,0.3,0.1,0.5,0.2c0.2,0.1,0.3,0.3,0.4,0.5
		c0.1,0.2,0.2,0.4,0.3,0.7C50,5.1,50,5.3,50,5.6z M57,9.9c0,1.3-0.4,1.9-1.3,1.9c-0.1,0-0.4,0-0.6-0.1c-0.3-0.1-0.6-0.1-0.9-0.2
		c-0.3-0.1-0.6-0.1-0.8-0.2c-0.3-0.1-0.5-0.1-0.6-0.1c-0.1,0-0.3,0-0.5,0.1c-0.2,0-0.5,0.1-0.7,0.1c-0.2,0-0.5,0.1-0.7,0.1
		c-0.2,0-0.4,0.1-0.5,0.1c-1.1,0-1.7-0.6-1.7-1.9c0-0.3,0-0.5,0-0.7c0-0.2,0.1-0.4,0.2-0.5c0.1-0.1,0.2-0.3,0.4-0.4s0.4-0.2,0.6-0.3
		c0.2-0.1,0.4-0.2,0.6-0.2c0.1-0.1,0.3-0.2,0.4-0.3s0.2-0.2,0.3-0.4c0.1-0.1,0.2-0.3,0.3-0.5c0.1-0.2,0.2-0.3,0.3-0.4
		c0.1-0.1,0.2-0.2,0.3-0.2c0.1-0.1,0.2-0.1,0.4-0.1s0.3,0,0.5,0c0.2,0,0.4,0,0.6,0.1c0.2,0,0.3,0.1,0.5,0.2c0.2,0.1,0.3,0.3,0.5,0.6
		c0.2,0.2,0.3,0.6,0.6,1c0.1,0.2,0.2,0.3,0.3,0.4c0.1,0.1,0.3,0.2,0.5,0.3c0.3,0.2,0.5,0.3,0.6,0.4c0.1,0.1,0.3,0.2,0.3,0.3
		C57,9.1,57,9.3,57,9.4C57,9.5,57,9.7,57,9.9z M52.6,3.8c0,0.5-0.1,0.8-0.2,1l-0.9,0.5c-0.2,0-0.4-0.1-0.5-0.2
		c-0.2-0.1-0.3-0.3-0.4-0.6c-0.1-0.2-0.2-0.5-0.3-0.8c-0.1-0.3-0.1-0.6-0.1-1c0-1,0.5-1.5,1.4-1.5C52.3,1.1,52.6,2,52.6,3.8z
		 M54.9,7.5c-0.1,0-0.1,0-0.2,0c-0.1,0-0.2-0.1-0.3-0.1s-0.2-0.1-0.3-0.1c-0.1,0-0.2,0-0.2,0c0,0-0.1,0.1-0.1,0.2
		c-0.1,0.1-0.1,0.2-0.2,0.4c-0.1,0.1-0.1,0.3-0.2,0.4s-0.1,0.2-0.1,0.3L53,7.7c-0.1-0.1-0.1-0.3-0.1-0.4c0-0.1,0-0.3,0-0.4h-0.3
		c-0.1,0-0.2,0-0.4,0c-0.2,0-0.4,0.1-0.7,0.1v1c0.2,0,0.3,0,0.5-0.1c0.1,0.1,0.1,0.2,0.3,0.4c0.1,0.2,0.3,0.5,0.4,0.8
		c-0.1,0.3-0.1,0.6-0.2,0.9s-0.1,0.5-0.1,0.7c0,0,0.1,0,0.2,0c0.1,0,0.2,0,0.3,0c0.1,0,0.2,0,0.3,0c0.1,0,0.2,0,0.2,0l0.1-1.3
		c0.2-0.2,0.4-0.5,0.6-0.8C54.4,8.4,54.6,8,54.9,7.5z M56.2,3.1c0,0.3,0,0.6-0.1,0.9c-0.1,0.3-0.2,0.5-0.3,0.7s-0.3,0.4-0.5,0.5
		S55,5.4,54.7,5.4c-0.6,0-1-0.4-1-1.2c0-0.4,0-0.8,0.1-1.1c0.1-0.3,0.2-0.6,0.3-0.9c0.1-0.2,0.3-0.4,0.5-0.6
		c0.2-0.1,0.4-0.2,0.6-0.2C55.9,1.4,56.2,2,56.2,3.1z M58.6,5.8C58.6,7,58,7.6,57,7.6c-0.4,0-0.6-0.2-0.6-0.7c0-0.2,0-0.5,0.1-0.7
		s0.2-0.5,0.3-0.7c0.1-0.2,0.3-0.4,0.4-0.5c0.2-0.1,0.3-0.2,0.5-0.2C58.3,4.8,58.6,5.1,58.6,5.8z"/>
	<path class="st6" d="M67.8,5.8c0,0.3-0.1,0.5-0.2,0.7c-0.1,0.2-0.3,0.3-0.6,0.3c-0.2,0-0.4-0.1-0.6-0.2S66,6.2,65.8,6
		c-0.2-0.2-0.3-0.5-0.4-0.7c-0.1-0.3-0.2-0.5-0.2-0.7c0-0.1,0-0.3,0.1-0.4c0.1-0.1,0.1-0.2,0.2-0.3s0.2-0.2,0.3-0.2
		c0.1-0.1,0.3-0.1,0.4-0.1c0.2,0,0.4,0.1,0.6,0.2C67,3.8,67.2,4,67.3,4.3c0.2,0.2,0.3,0.5,0.4,0.8C67.8,5.3,67.8,5.6,67.8,5.8z
		 M75.6,8.8c0,0.9-0.6,1.4-1.8,1.4c-0.1,0-0.2,0-0.3,0c-0.2,0-0.3,0-0.5,0c-0.2,0-0.3,0-0.5,0c-0.2,0-0.3,0-0.4,0
		c-0.2,0-0.4,0.1-0.7,0.1c-0.3,0.1-0.6,0.2-0.9,0.3s-0.6,0.2-0.9,0.3c-0.3,0.1-0.5,0.1-0.7,0.1c-0.2,0-0.5-0.1-0.7-0.2
		s-0.4-0.3-0.5-0.5c-0.1-0.2-0.2-0.4-0.3-0.7s-0.1-0.6-0.1-0.9c0-0.2,0-0.4,0-0.5c0-0.1,0.1-0.3,0.1-0.4c0.1-0.1,0.2-0.2,0.3-0.3
		c0.1-0.1,0.3-0.2,0.6-0.4c0.2-0.1,0.3-0.2,0.4-0.3c0.1-0.1,0.2-0.2,0.3-0.3c0.1-0.1,0.1-0.2,0.2-0.4c0.1-0.1,0.1-0.3,0.2-0.5
		c0.1-0.4,0.3-0.7,0.6-0.9c0.3-0.2,0.7-0.3,1.2-0.3c0.2,0,0.3,0,0.5,0.1c0.1,0,0.3,0.1,0.4,0.2c0.1,0.1,0.3,0.2,0.5,0.4
		s0.4,0.4,0.6,0.7c0.2,0.3,0.6,0.6,1.1,0.7C74.6,6.9,74.8,7,75,7.1s0.3,0.2,0.4,0.4c0.1,0.2,0.2,0.3,0.2,0.6
		C75.6,8.2,75.6,8.5,75.6,8.8z M70,3.7C70,3.9,70,4,69.8,4.2c-0.2,0.1-0.4,0.3-0.6,0.4l-0.2,0c-0.2,0-0.4-0.1-0.6-0.3
		c-0.2-0.2-0.4-0.4-0.5-0.7c-0.2-0.3-0.3-0.6-0.4-0.9s-0.1-0.6-0.1-0.9c0-0.2,0-0.3,0.1-0.5c0.1-0.2,0.2-0.3,0.3-0.4
		c0.1-0.1,0.2-0.2,0.4-0.3c0.1-0.1,0.3-0.1,0.5-0.1c0.2,0,0.3,0.1,0.5,0.4s0.3,0.5,0.5,0.9c0.1,0.3,0.3,0.7,0.3,1
		C70,3.1,70,3.4,70,3.7z M72.7,7.2c0-0.2,0-0.3-0.1-0.4c-0.1-0.1-0.1-0.3-0.2-0.4S72.1,6.3,72,6.2s-0.3-0.1-0.4-0.1
		c-0.2,0-0.3,0-0.5,0c-0.2,0-0.4,0.1-0.6,0.1l-1.1,0.4c0,0.2,0,0.3,0,0.5c0,0.1,0,0.2,0,0.2c0,0.2,0,0.5-0.1,0.7l0.5-0.2v2.5
		l0.8-0.2c0.4-0.1,0.5-0.3,0.5-0.5c0-0.1,0-0.1,0-0.2s0-0.2,0-0.3c0-0.1,0-0.2,0-0.3c0-0.1,0-0.1,0-0.2c0.2,0,0.4,0,0.6-0.1
		s0.4-0.2,0.5-0.3c0.1-0.1,0.3-0.3,0.4-0.5C72.6,7.6,72.7,7.4,72.7,7.2z M71.6,7.5c0,0.1,0,0.1,0,0.2c0,0.1-0.1,0.1-0.1,0.2
		S71.4,7.9,71.3,8C71.3,8,71.2,8,71.2,8C71.1,8,71,8,71,7.9c0-0.1,0-0.2,0-0.2c0-0.1,0-0.1,0-0.2c0-0.1,0-0.1,0-0.1
		c0,0,0.1-0.1,0.1-0.1c0.1,0,0.1,0,0.2,0C71.5,7.3,71.6,7.3,71.6,7.5z M73.4,2.4c0,0.2,0,0.5-0.1,0.7S73.2,3.4,73,3.6
		c-0.1,0.2-0.2,0.3-0.4,0.4c-0.2,0.1-0.3,0.1-0.5,0.1C71.4,4.1,71,3.4,71,2c0-0.3,0-0.5,0.1-0.8c0.1-0.2,0.1-0.4,0.3-0.6
		c0.1-0.2,0.2-0.3,0.4-0.4c0.2-0.1,0.3-0.1,0.5-0.1c0.2,0,0.3,0.1,0.5,0.2c0.1,0.1,0.3,0.3,0.4,0.5c0.1,0.2,0.2,0.5,0.2,0.7
		C73.4,1.8,73.4,2.1,73.4,2.4z M76.2,4.3c0,0.2,0,0.4-0.1,0.5C76,5,75.9,5.2,75.8,5.3c-0.1,0.1-0.3,0.3-0.4,0.3S75,5.8,74.8,5.8
		c-0.4,0-0.6-0.4-0.6-1.1c0-0.2,0-0.5,0.1-0.7c0.1-0.2,0.1-0.4,0.2-0.6s0.2-0.3,0.3-0.4s0.3-0.2,0.4-0.2c0.3,0,0.5,0.1,0.7,0.4
		C76.1,3.5,76.2,3.9,76.2,4.3z"/>
	<path class="st7" d="M80.3,5.6c0,0.4-0.1,0.8-0.3,1s-0.4,0.4-0.7,0.4c-0.2,0-0.4-0.1-0.5-0.2c-0.2-0.1-0.3-0.3-0.4-0.5
		c-0.1-0.2-0.2-0.4-0.3-0.7C78,5.4,78,5.2,78,4.9c0-0.9,0.4-1.3,1.1-1.3c0.4,0,0.7,0.2,0.9,0.6S80.3,5,80.3,5.6z M86.8,10.6
		c0,0.6-0.1,1.1-0.4,1.5s-0.6,0.6-1,0.6c-0.2,0-0.4,0-0.7-0.1c-0.3-0.1-0.6-0.2-0.9-0.3c-0.3-0.1-0.6-0.2-0.9-0.3
		c-0.3-0.1-0.5-0.1-0.6-0.1c-0.1,0-0.2,0-0.4,0c-0.2,0-0.4,0-0.6,0c-0.2,0-0.4,0-0.6,0c-0.2,0-0.3,0-0.4,0c-1.3,0-1.9-0.5-1.9-1.5
		l0-0.3c0-0.4,0-0.7,0.1-1c0.1-0.2,0.2-0.4,0.3-0.6c0.1-0.1,0.3-0.2,0.5-0.3s0.3-0.1,0.5-0.2c0.2,0,0.4-0.1,0.6-0.2s0.4-0.2,0.5-0.3
		l0.8-0.9c0.2-0.3,0.6-0.5,1-0.5c0.3,0,0.6,0,0.8,0.1c0.2,0,0.4,0.1,0.6,0.3s0.3,0.4,0.5,0.6c0.2,0.3,0.3,0.7,0.5,1.1
		c0.1,0.3,0.4,0.7,1,1.1c0.2,0.2,0.4,0.3,0.5,0.5C86.7,10.1,86.8,10.3,86.8,10.6z M84.8,7.8l-1-0.2c-0.2,0.5-0.4,0.7-0.7,0.7
		c-0.1,0-0.2,0-0.3-0.1c-0.1,0-0.3-0.1-0.5-0.1c-0.2,0-0.3-0.1-0.5-0.1c-0.1,0-0.3-0.1-0.3-0.1c-0.2,0-0.3,0.1-0.4,0.2
		s-0.2,0.2-0.3,0.4l0.9,0.3c0,0.1,0,0.2-0.1,0.4s-0.1,0.3-0.2,0.4C81.2,9.6,81.1,9.8,81,10c-0.1,0.2-0.2,0.3-0.3,0.5
		c-0.1,0.1-0.2,0.3-0.3,0.4c-0.1,0.1-0.1,0.2-0.1,0.2c0.1,0,0.3,0,0.5,0c0.2,0,0.4,0.1,0.7,0.1c0.2,0,0.5,0.1,0.8,0.1
		c0.3,0,0.5,0.1,0.8,0.1s0.5,0.1,0.7,0.1s0.4,0,0.5,0c0-0.1,0-0.2,0.1-0.3c0-0.1,0-0.2,0-0.3c0-0.1,0-0.2,0-0.3
		c0-0.1-0.1-0.2-0.3-0.2c-0.2,0-0.4-0.1-0.6-0.1c-0.2,0-0.4-0.1-0.6-0.1s-0.3-0.1-0.4-0.2c0.4,0.1,0.7,0.1,0.9,0.1
		c0.2,0,0.3,0,0.3,0c0.1,0,0.1,0,0.2-0.1s0.1-0.2,0.1-0.3s0.1-0.2,0.1-0.3c0-0.1,0-0.2,0-0.4l-1.4,0C82.7,9,83,8.9,83.4,8.9
		c0.1,0,0.1,0,0.3,0c0.1,0,0.3,0,0.4,0c0.1,0,0.3,0,0.4,0c0.1,0,0.2,0,0.3,0V7.8z M83.1,3.1c0,0.1,0,0.2,0,0.4c0,0.2,0,0.4,0,0.7
		c0,0.2-0.1,0.5-0.1,0.7c0,0.2-0.1,0.4-0.2,0.4c-0.1,0.1-0.3,0.1-0.4,0.2c-0.2,0.1-0.3,0.1-0.4,0.2c-0.7-0.1-1-0.8-1-2.2
		c0-1.3,0.5-1.9,1.5-1.9C82.8,1.5,83.1,2.1,83.1,3.1z M86.7,3.5c0,0.4,0,0.7-0.1,1c-0.1,0.3-0.2,0.6-0.3,0.8
		c-0.1,0.2-0.3,0.4-0.5,0.6s-0.4,0.2-0.7,0.2c-0.3,0-0.5-0.1-0.7-0.2s-0.3-0.4-0.3-0.6c0-0.4,0-0.7,0.1-1.1s0.2-0.7,0.4-0.9
		c0.2-0.3,0.3-0.5,0.6-0.7s0.5-0.3,0.7-0.3C86.4,2.3,86.7,2.7,86.7,3.5z M84.1,10.9L84.1,10.9L84.1,10.9L84.1,10.9z M88.7,6.8
		c0,0.6-0.1,1-0.4,1.3c-0.3,0.3-0.7,0.5-1.2,0.5c-0.4,0-0.6-0.2-0.6-0.7c0-0.2,0-0.4,0.1-0.7c0.1-0.2,0.2-0.5,0.4-0.7
		c0.1-0.2,0.3-0.4,0.5-0.5c0.2-0.1,0.4-0.2,0.6-0.2c0.2,0,0.4,0.1,0.5,0.3S88.7,6.5,88.7,6.8z"/>
	<path class="st4" d="M98.1,10.9c0,0.3,0,0.5-0.1,0.8c-0.1,0.3-0.2,0.5-0.3,0.7c-0.1,0.2-0.3,0.4-0.5,0.5c-0.2,0.1-0.4,0.2-0.6,0.2
		c-0.2,0-0.5-0.1-0.8-0.2c-0.3-0.1-0.6-0.3-0.9-0.5c-0.3-0.2-0.6-0.3-0.8-0.5c-0.2-0.1-0.4-0.2-0.5-0.3l-2.3-0.3
		c-0.9-0.2-1.4-0.7-1.4-1.5c0-0.9,0.2-1.5,0.5-1.8c0.1-0.1,0.3-0.2,0.5-0.2c0.2-0.1,0.5-0.1,0.7-0.2c0.3-0.1,0.5-0.1,0.8-0.2
		c0.2-0.1,0.4-0.1,0.5-0.2c0.1-0.1,0.3-0.2,0.4-0.4s0.3-0.2,0.4-0.3c0.1-0.1,0.3-0.2,0.4-0.3c0.1-0.1,0.3-0.1,0.4-0.1
		c0.3,0,0.6,0,0.8,0.1c0.2,0.1,0.4,0.2,0.6,0.4c0.2,0.2,0.3,0.4,0.5,0.8c0.1,0.3,0.2,0.8,0.4,1.3c0,0.2,0.1,0.3,0.3,0.5
		c0.1,0.2,0.3,0.4,0.4,0.6c0.1,0.2,0.3,0.4,0.4,0.6S98.1,10.8,98.1,10.9z M92.6,4.6c0,0.3,0,0.5-0.1,0.8c-0.1,0.2-0.1,0.4-0.2,0.6
		c-0.1,0.2-0.2,0.3-0.3,0.4c-0.1,0.1-0.3,0.1-0.5,0.1s-0.3,0-0.5-0.1c-0.1-0.1-0.3-0.2-0.3-0.4c-0.1-0.2-0.2-0.4-0.2-0.6
		c0-0.2-0.1-0.5-0.1-0.7c0-0.5,0.1-0.9,0.3-1.2c0.2-0.3,0.5-0.5,0.8-0.5C92.2,3.1,92.6,3.6,92.6,4.6z M95.7,8.1
		C95.6,8,95.5,8,95.5,8c-0.1,0-0.1,0-0.1,0c-0.1,0-0.2,0.1-0.2,0.2c-0.2,0-0.5-0.1-0.8-0.3c-0.3-0.1-0.7-0.3-1.1-0.6
		c0,0,0,0.1-0.1,0.2S93,7.7,92.9,7.8c-0.1,0.1-0.2,0.2-0.2,0.3c-0.1,0.1-0.1,0.2-0.1,0.2c0.1,0.1,0.3,0.2,0.7,0.3
		c0.3,0.1,0.5,0.2,0.6,0.2c0.1,0,0.2,0.1,0.2,0.1c0,0.1-0.1,0.2-0.2,0.6s-0.3,0.8-0.5,1.4c0.2,0.1,0.3,0.1,0.6,0.2
		c0.2,0.1,0.5,0.2,0.8,0.3c0-0.4,0-0.8,0.1-1.2c0-0.4,0.1-0.8,0.2-1.1l1.1,0.4c0-0.1,0-0.2,0-0.3c0-0.1,0-0.2,0-0.3
		c0-0.1,0-0.2,0-0.3c0-0.1,0-0.2,0-0.4L95.7,8.1z M95.8,2.5c0,0,0,0.1,0,0.3c0,0.1,0,0.3-0.1,0.5c0,0.2-0.1,0.4-0.1,0.6
		s-0.1,0.4-0.2,0.6c-0.1,0.2-0.1,0.4-0.2,0.5S95.1,5.4,95,5.4c-0.2,0-0.3,0.1-0.5,0.1c-0.2,0-0.3,0.1-0.5,0.1
		c-0.5-0.2-0.7-0.6-0.7-1.5c0-0.4,0-0.7,0.1-1.1c0.1-0.3,0.2-0.6,0.3-0.8s0.3-0.4,0.5-0.5c0.2-0.1,0.4-0.2,0.6-0.2
		c0.4,0,0.6,0.1,0.7,0.2C95.8,1.9,95.8,2.2,95.8,2.5z M99.3,3.8c0,0.3,0,0.7-0.2,1c-0.1,0.3-0.2,0.6-0.4,0.9
		c-0.2,0.3-0.4,0.5-0.6,0.7c-0.2,0.2-0.5,0.3-0.7,0.3c-0.3,0-0.5-0.1-0.7-0.3S96.3,6,96.3,5.7c0-0.3,0.1-0.6,0.2-0.9
		c0.1-0.3,0.3-0.6,0.5-0.9c0.2-0.3,0.4-0.5,0.7-0.7c0.2-0.2,0.5-0.3,0.7-0.3C99,2.9,99.3,3.2,99.3,3.8z M100.7,7.6
		c0,0.2,0,0.4-0.1,0.6c-0.1,0.2-0.2,0.4-0.3,0.6c-0.1,0.2-0.3,0.3-0.5,0.4s-0.4,0.2-0.6,0.2c-0.6,0-0.9-0.2-0.9-0.7
		c0-0.2,0.1-0.4,0.2-0.6s0.3-0.4,0.4-0.6C99,7.3,99.2,7.1,99.4,7c0.2-0.1,0.4-0.2,0.6-0.2c0.2,0,0.4,0.1,0.5,0.2
		S100.7,7.4,100.7,7.6z"/>
	<path class="st5" d="M104.1,5.8c0,0.3-0.1,0.5-0.2,0.7s-0.4,0.3-0.6,0.3c-0.2,0-0.4-0.1-0.6-0.2c-0.2-0.2-0.4-0.3-0.6-0.6
		c-0.2-0.2-0.3-0.5-0.4-0.7c-0.1-0.3-0.2-0.5-0.2-0.7c0-0.3,0.1-0.6,0.3-0.8c0.2-0.2,0.4-0.3,0.7-0.3c0.2,0,0.4,0.1,0.6,0.2
		c0.2,0.2,0.3,0.4,0.5,0.6c0.1,0.2,0.3,0.5,0.3,0.8C104,5.3,104.1,5.6,104.1,5.8z M111.8,9c0,0.9-0.6,1.4-1.7,1.4
		c-0.1,0-0.2,0-0.4,0s-0.4,0-0.6,0c-0.2,0-0.4,0-0.6,0c-0.2,0-0.3,0-0.4,0c-0.1,0-0.2,0-0.4,0.1c-0.2,0-0.3,0.1-0.5,0.2
		c-0.2,0.1-0.4,0.1-0.6,0.2s-0.4,0.2-0.6,0.2c-0.2,0.1-0.4,0.1-0.6,0.2c-0.2,0-0.3,0.1-0.4,0.1c-0.5,0-0.9-0.2-1.2-0.6
		s-0.4-1-0.4-1.6c0-0.2,0-0.3,0-0.5c0-0.1,0.1-0.3,0.1-0.4c0.1-0.1,0.2-0.2,0.3-0.3s0.3-0.2,0.6-0.4c0.2-0.1,0.4-0.3,0.5-0.4
		c0.1-0.2,0.2-0.3,0.3-0.5s0.2-0.3,0.2-0.5c0.1-0.2,0.2-0.4,0.3-0.5c0.1-0.2,0.3-0.3,0.5-0.4c0.2-0.1,0.6-0.1,0.9-0.1
		c0.2,0,0.4,0,0.5,0c0.1,0,0.3,0.1,0.4,0.2c0.1,0.1,0.3,0.2,0.5,0.4c0.2,0.2,0.4,0.5,0.6,0.8c0.1,0.2,0.3,0.3,0.4,0.4
		s0.4,0.2,0.6,0.3c0.3,0.1,0.5,0.2,0.7,0.3s0.3,0.2,0.4,0.4c0.1,0.2,0.2,0.3,0.2,0.6C111.8,8.4,111.8,8.6,111.8,9z M106.3,3.7
		c0,0.2-0.1,0.4-0.3,0.6l-0.5,0.4h-0.2c-0.2,0-0.4-0.1-0.6-0.3c-0.2-0.2-0.4-0.4-0.5-0.7s-0.3-0.6-0.4-0.9c-0.1-0.3-0.1-0.6-0.1-0.9
		c0-0.2,0-0.3,0.1-0.5c0.1-0.2,0.2-0.3,0.3-0.4s0.2-0.2,0.4-0.3c0.2-0.1,0.3-0.1,0.5-0.1c0.2,0,0.3,0.1,0.5,0.3
		c0.2,0.2,0.3,0.5,0.5,0.8s0.2,0.7,0.3,1C106.3,3.1,106.3,3.4,106.3,3.7z M109.3,8.4c0-0.2,0-0.3-0.1-0.4c-0.1-0.1-0.2-0.2-0.3-0.2
		c-0.1-0.1-0.3-0.1-0.6-0.1s-0.6,0-1,0c-0.4,0-0.6-0.1-0.6-0.2c0-0.2,0.1-0.3,0.4-0.3c0.1,0,0.2,0,0.3,0c0.1,0,0.3,0,0.4,0
		c0.1,0,0.3,0,0.4,0c0.1,0,0.2,0,0.3,0c0.1-0.5,0.2-0.8,0.3-1.1c-0.1,0-0.3-0.1-0.4-0.2c-0.2-0.1-0.4-0.1-0.6-0.2c0,0,0,0.1,0,0.2
		c0,0.1,0,0.2-0.1,0.2c-0.4,0.1-0.7,0.1-1,0.2s-0.5,0.1-0.7,0.2s-0.4,0.2-0.5,0.4c-0.1,0.1-0.2,0.3-0.2,0.5c0,0.1,0,0.2,0.1,0.3
		c0.1,0.1,0.2,0.2,0.3,0.3c0.1,0.1,0.3,0.2,0.5,0.2c0.2,0.1,0.3,0.1,0.5,0.1c0.1,0,0.1,0,0.3,0c0.1,0,0.2,0,0.4,0c0.1,0,0.2,0,0.4,0
		c0.1,0,0.2,0,0.2,0c0.2,0,0.2,0,0.2,0.1c0,0.3-0.3,0.5-0.8,0.5c-0.4,0-0.7-0.1-1-0.2l-0.6,1.1h0.9C108.5,10,109.3,9.5,109.3,8.4z
		 M109.7,2.4c0,0.3,0,0.5-0.1,0.7c-0.1,0.2-0.2,0.4-0.3,0.6c-0.1,0.2-0.2,0.3-0.4,0.4c-0.1,0.1-0.3,0.1-0.5,0.1
		c-0.8,0-1.2-0.7-1.2-2c0-0.3,0-0.5,0.1-0.8c0.1-0.2,0.1-0.5,0.3-0.6c0.1-0.2,0.3-0.3,0.4-0.4c0.2-0.1,0.4-0.2,0.6-0.2
		c0.2,0,0.3,0.1,0.4,0.2c0.1,0.1,0.2,0.3,0.3,0.5s0.2,0.4,0.2,0.7S109.7,2.1,109.7,2.4z M112.5,4.5c0,0.2,0,0.4-0.1,0.5
		s-0.2,0.3-0.3,0.5c-0.1,0.1-0.3,0.3-0.4,0.3S111.3,6,111.1,6c-0.4,0-0.6-0.4-0.6-1.1c0-0.2,0-0.5,0.1-0.7c0.1-0.2,0.1-0.4,0.2-0.6
		c0.1-0.2,0.2-0.3,0.4-0.4c0.1-0.1,0.3-0.2,0.4-0.2C112.2,3,112.5,3.5,112.5,4.5z"/>
</g>
<g>
</g>
<g>
</g>
<g>
</g>
<g>
</g>
<g>
</g>
<g>
</g>
</svg>
